<?xml version="1.0" encoding="UTF-8" standalone="no"?>
<svg
   width="32"
   height="32"
   viewBox="0 0 8.4666665 8.4666666"
   version="1.1"
   id="svg8"
   inkscape:version="1.1.1 (3bf5ae0d25, 2021-09-20)"
   sodipodi:docname="MODELER_reload.svg"
   xmlns:inkscape="http://www.inkscape.org/namespaces/inkscape"
   xmlns:sodipodi="http://sodipodi.sourceforge.net/DTD/sodipodi-0.dtd"
   xmlns="http://www.w3.org/2000/svg"
   xmlns:svg="http://www.w3.org/2000/svg"
   xmlns:rdf="http://www.w3.org/1999/02/22-rdf-syntax-ns#"
   xmlns:cc="http://creativecommons.org/ns#"
   xmlns:dc="http://purl.org/dc/elements/1.1/">
  <defs
     id="defs2">
    <linearGradient
       id="linearGradient897"
       inkscape:swatch="solid">
      <stop
         style="stop-color:#1a1a1a;stop-opacity:1;"
         offset="0"
         id="stop895" />
    </linearGradient>
    <marker
       style="overflow:visible"
       id="marker1742"
       refX="0.0"
       refY="0.0"
       orient="auto"
       inkscape:stockid="Arrow2Lstart"
       inkscape:isstock="true">
      <path
         transform="scale(1.1) translate(1,0)"
         d="M 8.7185878,4.0337352 L -2.2072895,0.016013256 L 8.7185884,-4.0017078 C 6.9730900,-1.6296469 6.9831476,1.6157441 8.7185878,4.0337352 z "
         style="fill-rule:evenodd;fill:context-stroke;stroke-width:0.62500000;stroke-linejoin:round"
         id="path1740" />
    </marker>
    <marker
       style="overflow:visible;"
       id="Arrow1Mend"
       refX="0.0"
       refY="0.0"
       orient="auto"
       inkscape:stockid="Arrow1Mend"
       inkscape:isstock="true">
      <path
         transform="scale(0.4) rotate(180) translate(10,0)"
         style="fill-rule:evenodd;fill:context-stroke;stroke:context-stroke;stroke-width:1.0pt;"
         d="M 0.0,0.0 L 5.0,-5.0 L -12.5,0.0 L 5.0,5.0 L 0.0,0.0 z "
         id="path865" />
    </marker>
    <marker
       style="overflow:visible"
       id="Arrow2Lstart"
       refX="0.0"
       refY="0.0"
       orient="auto"
       inkscape:stockid="Arrow2Lstart"
       inkscape:isstock="true">
      <path
         transform="scale(1.1) translate(1,0)"
         d="M 8.7185878,4.0337352 L -2.2072895,0.016013256 L 8.7185884,-4.0017078 C 6.9730900,-1.6296469 6.9831476,1.6157441 8.7185878,4.0337352 z "
         style="fill-rule:evenodd;fill:context-stroke;stroke-width:0.62500000;stroke-linejoin:round"
         id="path874" />
    </marker>
    <marker
       style="overflow:visible"
       id="Arrow1Lstart"
       refX="0.0"
       refY="0.0"
       orient="auto"
       inkscape:stockid="Arrow1Lstart"
       inkscape:isstock="true">
      <path
         transform="scale(0.8) translate(12.5,0)"
         style="fill-rule:evenodd;fill:context-stroke;stroke:context-stroke;stroke-width:1.0pt"
         d="M 0.0,0.0 L 5.0,-5.0 L -12.5,0.0 L 5.0,5.0 L 0.0,0.0 z "
         id="path856" />
    </marker>
  </defs>
  <sodipodi:namedview
     id="base"
     pagecolor="#ffffff"
     bordercolor="#666666"
     borderopacity="1.0"
     inkscape:pageopacity="0.0"
     inkscape:pageshadow="2"
     inkscape:zoom="7.9999997"
     inkscape:cx="24.250001"
     inkscape:cy="-0.50000002"
     inkscape:document-units="mm"
     inkscape:current-layer="g4557"
     showgrid="false"
     units="px"
     inkscape:window-width="1920"
     inkscape:window-height="1028"
     inkscape:window-x="-6"
     inkscape:window-y="-6"
     inkscape:window-maximized="1"
     inkscape:snap-page="true"
     inkscape:snap-object-midpoints="true"
     inkscape:snap-center="true"
     inkscape:object-paths="true"
     inkscape:snap-intersection-paths="true"
     inkscape:object-nodes="true"
     inkscape:snap-smooth-nodes="true"
     inkscape:snap-midpoints="true"
     inkscape:snap-bbox="true"
     inkscape:snap-global="false"
     fit-margin-top="0"
     fit-margin-left="0"
     fit-margin-right="0"
     fit-margin-bottom="0"
     inkscape:document-rotation="0"
     objecttolerance="10.0"
     gridtolerance="10.0"
     guidetolerance="10.0"
     inkscape:pagecheckerboard="0" />
  <metadata
     id="metadata5">
    <rdf:RDF>
      <cc:Work
         rdf:about="">
        <dc:format>image/svg+xml</dc:format>
        <dc:type
           rdf:resource="http://purl.org/dc/dcmitype/StillImage" />
        <dc:title />
      </cc:Work>
    </rdf:RDF>
  </metadata>
  <g
     inkscape:label="Layer 1"
     inkscape:groupmode="layer"
     id="layer1"
     transform="translate(-0.00937524,-288.55225)">
    <g
       id="g4557"
       transform="translate(-0.51112752,0.58911265)">
      <path
         style="fill:#808080;fill-opacity:1;stroke:#808080;stroke-width:0.1;stroke-linecap:round;stroke-linejoin:round;stroke-miterlimit:4;stroke-dasharray:none;stroke-opacity:1"
         id="path4016"
         d="m 6.0040157,293.97886 c -0.379055,0.26585 -0.8219876,0.39841 -1.2761515,0.3921 -0.060368,-7e-4 -0.1193323,-0.003 -0.1782963,-0.008 -0.023865,-0.002 -0.047733,-0.007 -0.072301,-0.008 -0.046329,-0.007 -0.092658,-0.012 -0.1375829,-0.0211 -0.028078,-0.006 -0.055454,-0.0126 -0.082129,-0.0189 -0.044222,-0.009 -0.088446,-0.0204 -0.1312653,-0.0337 -0.021058,-0.007 -0.041415,-0.0141 -0.061773,-0.021 -0.049839,-0.0162 -0.098975,-0.0337 -0.1474102,-0.054 -0.010529,-0.003 -0.021759,-0.009 -0.032289,-0.0141 -0.056157,-0.0245 -0.1116105,-0.0505 -0.1663631,-0.0799 -0.0021,-8.7e-4 -0.00492,-0.002 -0.00702,-0.003 -0.1825079,-0.10032 -0.3495728,-0.22516 -0.4955792,-0.37106 -0.0021,-0.002 -0.00421,-0.005 -0.00702,-0.007 -0.045627,-0.0457 -0.088446,-0.0934 -0.1298614,-0.1431 -0.00843,-0.0105 -0.016847,-0.0224 -0.025972,-0.033 C 2.7553742,293.18217 2.575674,292.7108 2.575674,292.19874 H 3.14917 l -0.9174532,-1.37481 -0.9174533,1.37481 h 0.5734917 c 0,0.60255 0.1881236,1.1616 0.5075125,1.62314 0.00351,0.007 0.00631,0.0132 0.010529,0.0196 0.032992,0.047 0.070196,0.0905 0.1052931,0.13537 0.013337,0.0168 0.025972,0.0343 0.039309,0.0505 0.051944,0.0638 0.1081008,0.12275 0.164959,0.18167 0.00561,0.006 0.010529,0.0112 0.016145,0.0168 0.1916334,0.1915 0.408537,0.35353 0.6443934,0.48259 0.00631,0.003 0.012634,0.007 0.018953,0.0105 0.067388,0.0365 0.1375829,0.0694 0.2084803,0.10095 0.017549,0.007 0.035097,0.0162 0.052646,0.0232 0.060368,0.0252 0.122842,0.047 0.1853158,0.0681 0.029481,0.009 0.058965,0.0203 0.089148,0.0294 0.054752,0.0162 0.1109086,0.0294 0.167065,0.0429 0.037905,0.008 0.074407,0.0183 0.1123125,0.0252 0.016145,0.003 0.030886,0.008 0.046329,0.0105 0.053349,0.008 0.106697,0.0147 0.1600456,0.0211 0.018953,0.002 0.037905,0.006 0.05756,0.007 0.095466,0.008 0.1909312,0.0153 0.285695,0.0153 0.5826215,0 1.1512039,-0.17817 1.6390616,-0.51907 0.1558337,-0.10943 0.1937391,-0.32336 0.084234,-0.47839 -0.1095048,-0.15571 -0.3236007,-0.19289 -0.4787324,-0.0842" />
      <path
         style="fill:#808080;fill-opacity:1;stroke:#808080;stroke-width:0.1;stroke-linecap:round;stroke-linejoin:round;stroke-miterlimit:4;stroke-dasharray:none;stroke-opacity:1;paint-order:fill markers stroke"
         id="path4018"
         d="m 7.6206147,292.19579 c 0,-0.60113 -0.1874215,-1.15877 -0.5054065,-1.61961 -0.00421,-0.007 -0.00772,-0.0162 -0.012634,-0.0231 -0.040011,-0.0561 -0.08283,-0.10873 -0.1256496,-0.16134 -0.00492,-0.007 -0.00982,-0.0132 -0.014741,-0.0196 -0.2906087,-0.35284 -0.6563265,-0.62499 -1.0697772,-0.80315 -0.011231,-0.005 -0.022462,-0.0105 -0.034396,-0.0153 -0.066685,-0.0273 -0.1340731,-0.0513 -0.2021626,-0.0736 -0.024568,-0.008 -0.048436,-0.0168 -0.073706,-0.0238 -0.058965,-0.0175 -0.1193321,-0.0322 -0.1804021,-0.0462 -0.033694,-0.007 -0.066685,-0.0162 -0.1010817,-0.0231 -0.016847,-0.002 -0.032289,-0.008 -0.049137,-0.0112 -0.045627,-0.007 -0.090553,-0.0112 -0.136179,-0.0175 -0.031588,-0.003 -0.061773,-0.008 -0.09336,-0.012 -0.075812,-0.007 -0.1516219,-0.009 -0.2274329,-0.0112 -0.014039,0 -0.026673,-0.002 -0.040713,-0.002 -0.0021,0 -0.00492,7.2e-4 -0.00702,7.2e-4 -0.5819194,0 -1.1490978,0.17604 -1.6362537,0.51696 -0.1558337,0.10871 -0.1937391,0.32265 -0.084234,0.47837 0.1088029,0.15573 0.3236007,0.1936 0.4787324,0.0842 0.3762472,-0.26305 0.81567,-0.39631 1.2656222,-0.39211 0.064581,0 0.1284576,0.003 0.1916333,0.009 0.019655,0.002 0.038607,0.005 0.058262,0.007 0.051944,0.007 0.103187,0.0141 0.1537277,0.0239 0.022463,0.003 0.044223,0.009 0.066686,0.0153 0.049839,0.0112 0.098976,0.0231 0.1474102,0.0379 0.015442,0.005 0.030184,0.0105 0.046329,0.0153 0.055454,0.0175 0.1102068,0.0379 0.1635553,0.0597 0.00561,0.002 0.011231,0.005 0.016145,0.007 0.3207927,0.13747 0.6022762,0.35001 0.8212857,0.61515 0.00141,8.8e-4 0.00282,0.003 0.00351,0.005 0.3088595,0.37596 0.4948772,0.85575 0.4948772,1.37902 H 6.360608 l 0.9174534,1.37482 0.9153474,-1.37411 z" />
    </g>
  </g>
</svg>
