<?xml version="1.0" encoding="UTF-8" standalone="no"?>
<svg
   width="32"
   height="32"
   viewBox="0 0 8.4666665 8.4666666"
   version="1.1"
   id="svg8"
   inkscape:version="1.1.1 (3bf5ae0d25, 2021-09-20)"
   sodipodi:docname="MODELER_center_pivot.svg"
   xmlns:inkscape="http://www.inkscape.org/namespaces/inkscape"
   xmlns:sodipodi="http://sodipodi.sourceforge.net/DTD/sodipodi-0.dtd"
   xmlns="http://www.w3.org/2000/svg"
   xmlns:svg="http://www.w3.org/2000/svg"
   xmlns:rdf="http://www.w3.org/1999/02/22-rdf-syntax-ns#"
   xmlns:cc="http://creativecommons.org/ns#"
   xmlns:dc="http://purl.org/dc/elements/1.1/">
  <defs
     id="defs2" />
  <sodipodi:namedview
     id="base"
     pagecolor="#ffffff"
     bordercolor="#666666"
     borderopacity="1.0"
     inkscape:pageopacity="0.0"
     inkscape:pageshadow="2"
     inkscape:zoom="22.627416"
     inkscape:cx="29.36703"
     inkscape:cy="40.968002"
     inkscape:document-units="mm"
     inkscape:current-layer="g4557"
     showgrid="false"
     units="px"
     inkscape:window-width="3840"
     inkscape:window-height="2068"
     inkscape:window-x="-12"
     inkscape:window-y="-12"
     inkscape:window-maximized="1"
     inkscape:snap-page="true"
     inkscape:snap-object-midpoints="true"
     inkscape:snap-center="true"
     inkscape:object-paths="true"
     inkscape:snap-intersection-paths="true"
     inkscape:object-nodes="true"
     inkscape:snap-smooth-nodes="true"
     inkscape:snap-midpoints="true"
     inkscape:snap-bbox="true"
     inkscape:snap-global="false"
     fit-margin-top="0"
     fit-margin-left="0"
     fit-margin-right="0"
     fit-margin-bottom="0"
     inkscape:document-rotation="0"
     inkscape:pagecheckerboard="0" />
  <metadata
     id="metadata5">
    <rdf:RDF>
      <cc:Work
         rdf:about="">
        <dc:format>image/svg+xml</dc:format>
        <dc:type
           rdf:resource="http://purl.org/dc/dcmitype/StillImage" />
      </cc:Work>
    </rdf:RDF>
  </metadata>
  <g
     inkscape:label="Layer 1"
     inkscape:groupmode="layer"
     id="layer1"
     transform="translate(-0.00937524,-288.55225)">
    <g
       id="g4557"
       transform="translate(-0.51112752,0.58911265)">
      <circle
         style="fill:#404040;stroke:#1a1a1a;stroke-width:0.5;stroke-linecap:round;stroke-linejoin:round;paint-order:markers fill stroke;fill-opacity:1;stroke-miterlimit:4;stroke-dasharray:none;stroke-opacity:1"
         id="path7134"
         cx="4.7538362"
         cy="292.19647"
         r="2.9434898" />
      <g
         id="g1877"
         style="fill:#999999;fill-opacity:1;stroke-width:9.62166"
         transform="matrix(0.02749863,0,0,0.02749863,-3.5894417,289.78639)">
        <path
           d="m 303.408,109.265 c 11.941,0 21.622,-9.68 21.622,-21.622 0,-2.723 -0.509,-5.326 -1.427,-7.726 -3.111,-8.125 -10.978,-13.896 -20.196,-13.896 -9.218,0 -17.084,5.771 -20.194,13.896 -0.918,2.399 -1.427,5.003 -1.427,7.726 10e-4,11.942 9.681,21.622 21.622,21.622 z"
           id="path1873"
           style="fill:#999999;fill-opacity:1;stroke-width:9.62166" />
        <path
           d="m 303.408,109.765 c -12.197,0 -22.121,-9.924 -22.123,-22.122 0,-2.713 0.491,-5.373 1.46,-7.904 3.255,-8.504 11.558,-14.217 20.661,-14.217 9.103,0 17.406,5.713 20.663,14.217 0.969,2.532 1.46,5.191 1.46,7.904 10e-4,12.198 -9.923,22.122 -22.121,22.122 z m -0.001,-43.244 c -8.691,0 -16.619,5.455 -19.728,13.575 -0.925,2.417 -1.394,4.956 -1.394,7.547 10e-4,11.646 9.477,21.122 21.123,21.122 11.646,0 21.122,-9.475 21.122,-21.122 0,-2.59 -0.469,-5.129 -1.394,-7.547 -3.109,-8.119 -11.037,-13.575 -19.729,-13.575 z"
           id="path1875"
           style="fill:#999999;fill-opacity:1;stroke-width:9.62166" />
      </g>
    </g>
  </g>
</svg>
