<?xml version="1.0" encoding="UTF-8" standalone="no"?>
<svg
   width="32"
   height="32"
   viewBox="0 0 8.4666665 8.4666666"
   version="1.1"
   id="svg8"
   inkscape:version="1.1.1 (3bf5ae0d25, 2021-09-20)"
   sodipodi:docname="MODELER_bevel.svg"
   xmlns:inkscape="http://www.inkscape.org/namespaces/inkscape"
   xmlns:sodipodi="http://sodipodi.sourceforge.net/DTD/sodipodi-0.dtd"
   xmlns="http://www.w3.org/2000/svg"
   xmlns:svg="http://www.w3.org/2000/svg"
   xmlns:rdf="http://www.w3.org/1999/02/22-rdf-syntax-ns#"
   xmlns:cc="http://creativecommons.org/ns#"
   xmlns:dc="http://purl.org/dc/elements/1.1/">
  <defs
     id="defs2" />
  <sodipodi:namedview
     id="base"
     pagecolor="#ffffff"
     bordercolor="#666666"
     borderopacity="1.0"
     inkscape:pageopacity="0.0"
     inkscape:pageshadow="2"
     inkscape:zoom="22.627416"
     inkscape:cx="14.274719"
     inkscape:cy="15.335379"
     inkscape:document-units="mm"
     inkscape:current-layer="g4557"
     showgrid="false"
     units="px"
     inkscape:window-width="3840"
     inkscape:window-height="2068"
     inkscape:window-x="-12"
     inkscape:window-y="-12"
     inkscape:window-maximized="1"
     inkscape:snap-page="true"
     inkscape:snap-object-midpoints="true"
     inkscape:snap-center="true"
     inkscape:object-paths="true"
     inkscape:snap-intersection-paths="true"
     inkscape:object-nodes="true"
     inkscape:snap-smooth-nodes="true"
     inkscape:snap-midpoints="true"
     inkscape:snap-bbox="true"
     inkscape:snap-global="false"
     fit-margin-top="0"
     fit-margin-left="0"
     fit-margin-right="0"
     fit-margin-bottom="0"
     inkscape:document-rotation="0"
     inkscape:pagecheckerboard="0" />
  <metadata
     id="metadata5">
    <rdf:RDF>
      <cc:Work
         rdf:about="">
        <dc:format>image/svg+xml</dc:format>
        <dc:type
           rdf:resource="http://purl.org/dc/dcmitype/StillImage" />
      </cc:Work>
    </rdf:RDF>
  </metadata>
  <g
     inkscape:label="Layer 1"
     inkscape:groupmode="layer"
     id="layer1"
     transform="translate(-0.00937524,-288.55225)">
    <g
       id="g4557"
       transform="translate(-0.51112752,0.58911265)">
      <path
         style="fill:#808080;fill-opacity:1;stroke-width:0.699998;stroke-linecap:round;stroke-linejoin:round;paint-order:fill markers stroke"
         d="m 4.1267637,294.54507 c -0.9530758,-0.0845 -1.8712165,-0.46033 -2.623972,-1.07403 l -0.1054409,-0.0859 v -0.79 -0.79001 l 0.1777432,0.11996 c 0.5472182,0.36933 1.2064426,0.65391 1.8286465,0.78942 0.3916045,0.0853 0.6576729,0.11341 1.0724847,0.11339 0.4062127,-3e-5 0.6840397,-0.0292 1.0242831,-0.10737 0.9134782,-0.20999 1.7361573,-0.6981 2.4853925,-1.47459 l 0.1235167,-0.128 v 0.7027 0.70272 l -0.094188,0.12862 c -0.4782917,0.65313 -1.1566427,1.21747 -1.8482282,1.53762 -0.3660063,0.16943 -0.7655615,0.28463 -1.1665839,0.33635 -0.1931842,0.0249 -0.6868354,0.0357 -0.8736533,0.0192 z"
         id="path3633" />
      <path
         style="fill:#666666;fill-opacity:1;stroke-width:0.7;stroke-linecap:round;stroke-linejoin:round;paint-order:fill markers stroke"
         d="m 4.1523142,292.45199 c -0.722559,-0.0494 -1.4588732,-0.26873 -2.1017561,-0.62621 -0.1709903,-0.0951 -0.5020969,-0.30504 -0.492936,-0.31258 0.00222,-0.002 0.4026477,-0.28973 0.889836,-0.63977 0.4871884,-0.35005 1.1967719,-0.86001 1.5768522,-1.13324 0.3800805,-0.27324 0.6963561,-0.49512 0.7028347,-0.49307 0.054971,0.0174 3.2474164,1.52511 3.2448045,1.53244 -0.00991,0.0278 -0.2984656,0.32975 -0.4262927,0.44607 -0.9917056,0.90247 -2.1271983,1.31283 -3.3933426,1.22636 z"
         id="path3477" />
      <path
         id="path9255"
         style="fill:none;fill-opacity:1;stroke:#1a1a1a;stroke-width:0.499999;stroke-linecap:round;stroke-linejoin:round;stroke-miterlimit:4;stroke-dasharray:none;stroke-opacity:1;paint-order:stroke fill markers"
         d="m 8.2616321,290.67822 -3.5698078,-1.67535 -3.4457844,2.47788"
         sodipodi:nodetypes="ccc" />
      <path
         id="path12424"
         style="fill:none;fill-opacity:1;stroke:#1a1a1a;stroke-width:0.5;stroke-linecap:round;stroke-linejoin:round;stroke-miterlimit:4;stroke-dasharray:none;stroke-opacity:1;paint-order:stroke fill markers"
         d="m 8.2616321,292.72611 v -2.04789"
         sodipodi:nodetypes="cc" />
      <path
         id="path12554"
         style="fill:none;fill-opacity:1;stroke:#1a1a1a;stroke-width:0.499999;stroke-linecap:round;stroke-linejoin:round;stroke-miterlimit:4;stroke-dasharray:none;stroke-opacity:1;paint-order:stroke fill markers"
         d="m 8.2616321,292.72611 c 0,0 -1.1732745,1.78923 -3.3780995,1.9658 -2.204825,0.17657 -3.637296,-1.16317 -3.637296,-1.16317 m 0,0 v -2.04789"
         sodipodi:nodetypes="czccc" />
      <path
         id="path3211"
         style="fill:none;fill-opacity:1;stroke:#1a1a1a;stroke-width:0.499999;stroke-linecap:round;stroke-linejoin:round;stroke-miterlimit:4;stroke-dasharray:none;stroke-opacity:1;paint-order:stroke fill markers"
         d="m 8.2616321,290.67822 c 0,0 -1.1732745,1.78923 -3.3780995,1.9658 -2.204825,0.17657 -3.637296,-1.16317 -3.637296,-1.16317"
         sodipodi:nodetypes="czc" />
    </g>
  </g>
</svg>
