<?xml version="1.0" encoding="UTF-8" standalone="no"?>
<svg
   sodipodi:docname="MODELER_pick_material_copy.svg"
   inkscape:version="1.1.1 (3bf5ae0d25, 2021-09-20)"
   id="svg8"
   version="1.1"
   viewBox="0 0 8.4666665 8.4666666"
   height="32"
   width="32"
   xmlns:inkscape="http://www.inkscape.org/namespaces/inkscape"
   xmlns:sodipodi="http://sodipodi.sourceforge.net/DTD/sodipodi-0.dtd"
   xmlns="http://www.w3.org/2000/svg"
   xmlns:svg="http://www.w3.org/2000/svg"
   xmlns:rdf="http://www.w3.org/1999/02/22-rdf-syntax-ns#"
   xmlns:cc="http://creativecommons.org/ns#"
   xmlns:dc="http://purl.org/dc/elements/1.1/">
  <defs
     id="defs2" />
  <sodipodi:namedview
     inkscape:document-rotation="0"
     fit-margin-bottom="0"
     fit-margin-right="0"
     fit-margin-left="0"
     fit-margin-top="0"
     inkscape:snap-global="false"
     inkscape:snap-bbox="true"
     inkscape:snap-midpoints="true"
     inkscape:snap-smooth-nodes="true"
     inkscape:object-nodes="true"
     inkscape:snap-intersection-paths="true"
     inkscape:object-paths="true"
     inkscape:snap-center="true"
     inkscape:snap-object-midpoints="true"
     inkscape:snap-page="true"
     inkscape:window-maximized="1"
     inkscape:window-y="-12"
     inkscape:window-x="3348"
     inkscape:window-height="2068"
     inkscape:window-width="3840"
     units="px"
     showgrid="false"
     inkscape:current-layer="g4557"
     inkscape:document-units="mm"
     inkscape:cy="8.5624989"
     inkscape:cx="14.312498"
     inkscape:zoom="16.000002"
     inkscape:pageshadow="2"
     inkscape:pageopacity="0.0"
     borderopacity="1.0"
     bordercolor="#666666"
     pagecolor="#ffffff"
     id="base"
     inkscape:pagecheckerboard="0" />
  <metadata
     id="metadata5">
    <rdf:RDF>
      <cc:Work
         rdf:about="">
        <dc:format>image/svg+xml</dc:format>
        <dc:type
           rdf:resource="http://purl.org/dc/dcmitype/StillImage" />
      </cc:Work>
    </rdf:RDF>
  </metadata>
  <g
     transform="translate(-0.00937524,-288.55225)"
     id="layer1"
     inkscape:groupmode="layer"
     inkscape:label="Layer 1">
    <g
       transform="translate(-0.51112752,0.58911265)"
       id="g4557">
      <ellipse
         style="fill:#4d4d4d;fill-opacity:1;stroke:#1a1a1a;stroke-width:0.5;stroke-linecap:round;stroke-linejoin:round;stroke-miterlimit:4;stroke-dasharray:none;stroke-opacity:1"
         id="ellipse924"
         cx="3.5594842"
         cy="291.97778"
         rx="2.6839848"
         ry="2.683985" />
      <path
         id="path3957"
         d="m 6.2351584,294.51004 0.8214219,-0.82143 0.3278899,0.32789 0.3278899,0.32789 -0.4934038,0.49354 -0.4934039,0.49353 H 6.0696445 5.4137366 Z"
         style="fill:#999999;fill-opacity:1;stroke:#1a1a1a;stroke-width:0.0245428;stroke-linecap:round;stroke-linejoin:round" />
      <ellipse
         style="fill:#666666;fill-opacity:1;stroke:#1a1a1a;stroke-width:0.5;stroke-linecap:round;stroke-linejoin:round;stroke-miterlimit:4;stroke-dasharray:none;stroke-opacity:1"
         id="path4140"
         cx="3.5264111"
         cy="290.96906"
         rx="2.6839848"
         ry="2.683985" />
      <ellipse
         style="fill:#b2b2b2;fill-opacity:1;stroke:none;stroke-width:0.266869;stroke-linecap:round;stroke-linejoin:miter;stroke-miterlimit:4;stroke-dasharray:none;stroke-opacity:1"
         id="path4137"
         cx="3.9802895"
         cy="290.20905"
         rx="0.87855595"
         ry="0.87855607" />
      <path
         style="stroke-width:0.264583;fill:#1a1a1a;fill-opacity:1"
         d="m 5.3599314,296.39644 c -0.109106,0 -0.20152,-0.0378 -0.276835,-0.11317 -0.07531,-0.0753 -0.113177,-0.16733 -0.113177,-0.27521 0,-0.11277 0.04071,-0.20925 0.121726,-0.29068 l 0.05903,-0.059 c 0.0025,-0.004 0.0053,-0.009 0.0094,-0.0167 0.0041,-0.008 0.0069,-0.0155 0.0094,-0.0228 0.0025,-0.007 0.0033,-0.0127 0.0033,-0.0158 -0.0069,-0.0293 -0.01018,-0.0607 -0.01018,-0.0945 0,-0.0708 0.01425,-0.14208 0.04315,-0.21373 0.0289,-0.0716 0.06799,-0.1319 0.117248,-0.18157 l 1.516891,-1.51689 -0.189306,-0.18768 c -0.02809,-0.0281 -0.04234,-0.0615 -0.04234,-0.0997 0,-0.037 0.01303,-0.0688 0.03868,-0.0945 l 0.239788,-0.23979 c 0.02606,-0.0248 0.0574,-0.037 0.09445,-0.037 0.03827,0 0.07165,0.0134 0.09974,0.0407 l 0.261772,0.26177 c 0.01222,-0.0158 0.01954,-0.024 0.02198,-0.0252 l 0.536978,-0.53901 c 0.176686,-0.17669 0.33668,-0.26503 0.479575,-0.26503 0.109106,0 0.212105,0.0484 0.308997,0.14534 l 0.120097,0.1201 c 0.09893,0.0989 0.148596,0.20273 0.148596,0.31062 0,0.081 -0.02442,0.16081 -0.07328,0.23897 -0.04886,0.0782 -0.113991,0.15796 -0.195006,0.23897 l -0.539014,0.53902 -0.02524,0.0204 0.261772,0.2634 c 0.02809,0.0269 0.04234,0.0602 0.04234,0.0997 0,0.037 -0.01303,0.068 -0.03868,0.0928 l -0.239787,0.23978 c -0.02606,0.0261 -0.05699,0.0387 -0.09282,0.0387 -0.03949,0 -0.07328,-0.0143 -0.101371,-0.0423 l -0.187677,-0.18768 -1.516892,1.51689 c -0.04967,0.0484 -0.109919,0.0871 -0.181571,0.11562 -0.07165,0.0289 -0.142081,0.0432 -0.212104,0.0432 -0.03134,0 -0.0627,-0.003 -0.09282,-0.009 -0.0044,0 -0.01058,0.001 -0.01873,0.004 -0.0077,0.002 -0.01547,0.005 -0.0228,0.009 -0.0073,0.004 -0.01262,0.006 -0.01588,0.009 l -0.06066,0.0607 c -0.07939,0.0798 -0.175871,0.11969 -0.288641,0.11969 z m 0.152259,-1.13868 h 1.194053 l 0.896863,-0.89686 -0.596416,-0.59805 z"
         id="path3354" />
    </g>
  </g>
</svg>
