<?xml version="1.0" encoding="UTF-8" standalone="no"?>
<svg
   sodipodi:docname="MODELER_mini_ui.svg"
   inkscape:version="1.1.1 (3bf5ae0d25, 2021-09-20)"
   id="svg8"
   version="1.1"
   viewBox="0 0 8.4666665 8.4666666"
   height="32"
   width="32"
   xmlns:inkscape="http://www.inkscape.org/namespaces/inkscape"
   xmlns:sodipodi="http://sodipodi.sourceforge.net/DTD/sodipodi-0.dtd"
   xmlns="http://www.w3.org/2000/svg"
   xmlns:svg="http://www.w3.org/2000/svg"
   xmlns:rdf="http://www.w3.org/1999/02/22-rdf-syntax-ns#"
   xmlns:cc="http://creativecommons.org/ns#"
   xmlns:dc="http://purl.org/dc/elements/1.1/">
  <defs
     id="defs2" />
  <sodipodi:namedview
     inkscape:document-rotation="0"
     fit-margin-bottom="0"
     fit-margin-right="0"
     fit-margin-left="0"
     fit-margin-top="0"
     inkscape:snap-global="false"
     inkscape:snap-bbox="true"
     inkscape:snap-midpoints="true"
     inkscape:snap-smooth-nodes="true"
     inkscape:object-nodes="true"
     inkscape:snap-intersection-paths="true"
     inkscape:object-paths="true"
     inkscape:snap-center="true"
     inkscape:snap-object-midpoints="true"
     inkscape:snap-page="true"
     inkscape:window-maximized="1"
     inkscape:window-y="-12"
     inkscape:window-x="-12"
     inkscape:window-height="2068"
     inkscape:window-width="3840"
     units="px"
     showgrid="false"
     inkscape:current-layer="layer1"
     inkscape:document-units="mm"
     inkscape:cy="31.375002"
     inkscape:cx="68.375004"
     inkscape:zoom="7.9999995"
     inkscape:pageshadow="2"
     inkscape:pageopacity="0.0"
     borderopacity="1.0"
     bordercolor="#666666"
     pagecolor="#ffffff"
     id="base"
     inkscape:pagecheckerboard="0"
     inkscape:blackoutopacity="0.0" />
  <metadata
     id="metadata5">
    <rdf:RDF>
      <cc:Work
         rdf:about="">
        <dc:format>image/svg+xml</dc:format>
        <dc:type
           rdf:resource="http://purl.org/dc/dcmitype/StillImage" />
      </cc:Work>
    </rdf:RDF>
  </metadata>
  <g
     transform="translate(-0.00937524,-288.55225)"
     id="layer1"
     inkscape:groupmode="layer"
     inkscape:label="Layer 1">
    <g
       aria-label="mini UI"
       id="text3893"
       style="font-weight:bold;font-size:3.175px;-inkscape-font-specification:'sans-serif Bold';fill:#999999;fill-opacity:1;stroke-width:0.229178;stroke-linecap:round;stroke-linejoin:round"
       transform="matrix(1.0908575,0,0,1.0908575,-0.38548206,-26.601758)">
      <path
         d="m 2.3048425,290.74927 v 1.23404 h -0.561206 v -0.86972 q 0,-0.12712 -0.0062,-0.21549 -0.0062,-0.0899 -0.034107,-0.14573 -0.027905,-0.0558 -0.085266,-0.0806 -0.05581,-0.0264 -0.1581299,-0.0264 -0.082166,0 -0.1596801,0.0341 -0.077515,0.0326 -0.1395264,0.0698 v 1.23404 H 0.60262085 v -1.74098 H 1.1607263 v 0.19223 q 0.1441773,-0.11317 0.2759522,-0.17673 0.1317749,-0.0636 0.291455,-0.0636 0.1720825,0 0.3038574,0.0775 0.1317749,0.076 0.206189,0.2248 0.1674316,-0.14108 0.3255615,-0.2217 0.1581299,-0.0806 0.3100586,-0.0806 0.2821533,0 0.4278809,0.16898 0.1472778,0.16898 0.1472778,0.48679 v 1.13327 H 2.8877526 v -0.86972 q 0,-0.12867 -0.0062,-0.21704 -0.00465,-0.0884 -0.032556,-0.14418 -0.026355,-0.0558 -0.083716,-0.0806 -0.057361,-0.0264 -0.1612305,-0.0264 -0.069763,0 -0.1364257,0.0248 -0.066663,0.0233 -0.1627808,0.0791 z"
         style="font-family:Verdana;-inkscape-font-specification:'Verdana Bold';text-align:center;text-anchor:middle;fill:#999999;fill-opacity:1;stroke-width:0.229178"
         id="path25423" />
      <path
         d="M 4.5202112,291.98331 H 3.9621058 v -1.74098 h 0.5581054 z m 0.015503,-1.98903 H 3.9466028 v -0.42323 h 0.5891113 z"
         style="font-family:Verdana;-inkscape-font-specification:'Verdana Bold';text-align:center;text-anchor:middle;fill:#999999;fill-opacity:1;stroke-width:0.229178"
         id="path25425" />
      <path
         d="M 6.796041,291.98331 H 6.234835 v -0.86352 q 0,-0.10542 -0.010852,-0.20929 -0.010852,-0.10542 -0.037207,-0.15503 -0.031006,-0.0574 -0.091467,-0.0837 -0.058911,-0.0264 -0.1658813,-0.0264 -0.075964,0 -0.1550293,0.0248 -0.077515,0.0248 -0.1689819,0.0791 v 1.23404 H 5.0473106 v -1.74098 h 0.5581055 v 0.19223 q 0.1488281,-0.11627 0.2852539,-0.17828 0.137976,-0.062 0.3054077,-0.062 0.2821533,0 0.4402832,0.16433 0.1596801,0.16433 0.1596801,0.49144 z"
         style="font-family:Verdana;-inkscape-font-specification:'Verdana Bold';text-align:center;text-anchor:middle;fill:#999999;fill-opacity:1;stroke-width:0.229178"
         id="path25427" />
      <path
         d="M 7.8672936,291.98331 H 7.3091881 v -1.74098 h 0.5581055 z m 0.015503,-1.98903 H 7.2936852 v -0.42323 h 0.5891113 z"
         style="font-family:Verdana;-inkscape-font-specification:'Verdana Bold';text-align:center;text-anchor:middle;fill:#999999;fill-opacity:1;stroke-width:0.229178"
         id="path25429" />
      <path
         d="m 4.3954125,295.11645 q 0,0.42788 -0.2604492,0.65577 -0.2604492,0.2279 -0.767395,0.2279 -0.5069458,0 -0.767395,-0.2279 -0.2588989,-0.22789 -0.2588989,-0.65422 v -1.47433 h 0.5984131 v 1.44022 q 0,0.2403 0.100769,0.35812 0.100769,0.11782 0.3271118,0.11782 0.2232422,0 0.3255615,-0.11317 0.1038697,-0.11317 0.1038697,-0.36277 v -1.44022 h 0.598413 z"
         style="font-family:Verdana;-inkscape-font-specification:'Verdana Bold';text-align:center;text-anchor:middle;fill:#999999;fill-opacity:1;stroke-width:0.229178"
         id="path25431" />
      <path
         d="M 6.1999535,295.95206 H 4.8480981 v -0.40928 h 0.3782714 v -1.48983 H 4.8480981 v -0.40928 h 1.3518554 v 0.40928 H 5.821682 v 1.48983 h 0.3782715 z"
         style="font-family:Verdana;-inkscape-font-specification:'Verdana Bold';text-align:center;text-anchor:middle;fill:#999999;fill-opacity:1;stroke-width:0.229178"
         id="path25433" />
    </g>
  </g>
</svg>
