<?xml version="1.0" encoding="UTF-8" standalone="no"?>
<svg
   sodipodi:docname="MODELER_delete_node.svg"
   inkscape:version="1.1.1 (3bf5ae0d25, 2021-09-20)"
   id="svg8"
   version="1.1"
   viewBox="0 0 8.4666665 8.4666666"
   height="32"
   width="32"
   xmlns:inkscape="http://www.inkscape.org/namespaces/inkscape"
   xmlns:sodipodi="http://sodipodi.sourceforge.net/DTD/sodipodi-0.dtd"
   xmlns="http://www.w3.org/2000/svg"
   xmlns:svg="http://www.w3.org/2000/svg"
   xmlns:rdf="http://www.w3.org/1999/02/22-rdf-syntax-ns#"
   xmlns:cc="http://creativecommons.org/ns#"
   xmlns:dc="http://purl.org/dc/elements/1.1/">
  <defs
     id="defs2" />
  <sodipodi:namedview
     inkscape:document-rotation="0"
     fit-margin-bottom="0"
     fit-margin-right="0"
     fit-margin-left="0"
     fit-margin-top="0"
     inkscape:snap-global="false"
     inkscape:snap-bbox="true"
     inkscape:snap-midpoints="true"
     inkscape:snap-smooth-nodes="true"
     inkscape:object-nodes="true"
     inkscape:snap-intersection-paths="true"
     inkscape:object-paths="true"
     inkscape:snap-center="true"
     inkscape:snap-object-midpoints="true"
     inkscape:snap-page="true"
     inkscape:window-maximized="1"
     inkscape:window-y="-12"
     inkscape:window-x="-12"
     inkscape:window-height="2068"
     inkscape:window-width="3840"
     units="px"
     showgrid="false"
     inkscape:current-layer="layer1"
     inkscape:document-units="mm"
     inkscape:cy="13.766486"
     inkscape:cx="27.113127"
     inkscape:zoom="45.254832"
     inkscape:pageshadow="2"
     inkscape:pageopacity="0.0"
     borderopacity="1.0"
     bordercolor="#666666"
     pagecolor="#ffffff"
     id="base"
     inkscape:pagecheckerboard="0"
     inkscape:blackoutopacity="0.0" />
  <metadata
     id="metadata5">
    <rdf:RDF>
      <cc:Work
         rdf:about="">
        <dc:format>image/svg+xml</dc:format>
        <dc:type
           rdf:resource="http://purl.org/dc/dcmitype/StillImage" />
      </cc:Work>
    </rdf:RDF>
  </metadata>
  <g
     transform="translate(-0.00937524,-288.55225)"
     id="layer1"
     inkscape:groupmode="layer"
     inkscape:label="Layer 1">
    <path
       id="path1459"
       style="fill:#666666;fill-opacity:1;stroke:#1a1a1a;stroke-width:0.5;stroke-linecap:round;stroke-linejoin:round;stroke-miterlimit:4;stroke-dasharray:none;stroke-opacity:1"
       d="m 1.984,289.00533 h 4.5174174 v 1.69727 H 1.984 v -1.69727"
       sodipodi:nodetypes="ccccc" />
    <path
       id="path1739"
       style="fill:#666666;fill-opacity:1;stroke:#1a1a1a;stroke-width:0.5;stroke-linecap:round;stroke-linejoin:round;stroke-miterlimit:4;stroke-dasharray:none;stroke-opacity:1"
       d="m 1.984,293.62034 h 4.5174174 v 1.69729 H 1.984 v -1.69729"
       sodipodi:nodetypes="ccccc" />
    <path
       style="fill:none;fill-opacity:1;stroke:#666666;stroke-width:0.5;stroke-linecap:butt;stroke-linejoin:round;stroke-miterlimit:4;stroke-dasharray:none;stroke-opacity:1"
       d="m 4.2427089,290.9482 v 2.83379"
       id="path1774" />
    <path
       id="rect1434"
       style="fill:#999999;fill-opacity:1;fill-rule:evenodd;stroke:#1a1a1a;stroke-width:0.5;stroke-linecap:round;stroke-linejoin:round;stroke-miterlimit:4;stroke-dasharray:none;stroke-opacity:1;paint-order:fill markers stroke"
       d="m 2.5211914,292.0687 c -0.1526951,-0.005 -0.3043459,0.0514 -0.4186177,0.16536 -0.2285383,0.22797 -0.2193237,0.60392 0.02017,0.84281 l 1.295217,1.29203 -1.295217,1.29201 c -0.2394873,0.23887 -0.248702,0.61484 -0.02017,0.8428 0.228542,0.22797 0.60543,0.21879 0.8449175,-0.02 l 1.2952169,-1.29201 1.2952151,1.29201 c 0.2394876,0.23889 0.6163757,0.24808 0.8449177,0.02 0.2285382,-0.22796 0.2193237,-0.60393 -0.020171,-0.8428 L 5.067453,294.3689 6.3626699,293.07687 c 0.2394876,-0.23889 0.248704,-0.61484 0.020171,-0.84281 -0.2285402,-0.22797 -0.6054283,-0.21877 -0.8449177,0.0201 l -1.2952151,1.29198 -1.2952169,-1.29198 c -0.00747,-0.007 -0.01508,-0.0147 -0.02281,-0.0217 -0.11613,-0.1052 -0.2603194,-0.16037 -0.4034875,-0.16371 m 0,0 -2.3e-6,-5e-5"
       sodipodi:nodetypes="cccccscccccccccccsccc" />
  </g>
</svg>
