<?xml version="1.0" encoding="UTF-8" standalone="no"?>
<svg
   width="32"
   height="32"
   viewBox="0 0 8.4666665 8.4666666"
   version="1.1"
   id="svg8"
   inkscape:version="1.1.1 (3bf5ae0d25, 2021-09-20)"
   sodipodi:docname="MODELER_topo_skin.svg"
   xmlns:inkscape="http://www.inkscape.org/namespaces/inkscape"
   xmlns:sodipodi="http://sodipodi.sourceforge.net/DTD/sodipodi-0.dtd"
   xmlns="http://www.w3.org/2000/svg"
   xmlns:svg="http://www.w3.org/2000/svg"
   xmlns:rdf="http://www.w3.org/1999/02/22-rdf-syntax-ns#"
   xmlns:cc="http://creativecommons.org/ns#"
   xmlns:dc="http://purl.org/dc/elements/1.1/">
  <defs
     id="defs2" />
  <sodipodi:namedview
     id="base"
     pagecolor="#ffffff"
     bordercolor="#666666"
     borderopacity="1.0"
     inkscape:pageopacity="0.0"
     inkscape:pageshadow="2"
     inkscape:zoom="22.260768"
     inkscape:cx="27.088014"
     inkscape:cy="28.884897"
     inkscape:document-units="mm"
     inkscape:current-layer="g4557"
     showgrid="false"
     units="px"
     inkscape:window-width="3840"
     inkscape:window-height="2120"
     inkscape:window-x="-12"
     inkscape:window-y="-12"
     inkscape:window-maximized="1"
     inkscape:snap-page="true"
     inkscape:snap-object-midpoints="true"
     inkscape:snap-center="true"
     inkscape:object-paths="true"
     inkscape:snap-intersection-paths="true"
     inkscape:object-nodes="true"
     inkscape:snap-smooth-nodes="true"
     inkscape:snap-midpoints="true"
     inkscape:snap-bbox="true"
     inkscape:snap-global="false"
     fit-margin-top="0"
     fit-margin-left="0"
     fit-margin-right="0"
     fit-margin-bottom="0"
     inkscape:document-rotation="0"
     objecttolerance="10.0"
     gridtolerance="10.0"
     guidetolerance="10.0"
     inkscape:pagecheckerboard="0" />
  <metadata
     id="metadata5">
    <rdf:RDF>
      <cc:Work
         rdf:about="">
        <dc:format>image/svg+xml</dc:format>
        <dc:type
           rdf:resource="http://purl.org/dc/dcmitype/StillImage" />
      </cc:Work>
    </rdf:RDF>
  </metadata>
  <g
     inkscape:label="Layer 1"
     inkscape:groupmode="layer"
     id="layer1"
     transform="translate(-0.00937524,-288.55225)">
    <g
       id="g4557"
       transform="translate(-0.51112752,0.58911265)">
      <g
         id="g3066"
         transform="rotate(45,4.7874538,292.31484)">
        <path
           style="fill:#666666;fill-opacity:1;fill-rule:evenodd;stroke:none;stroke-width:0.5;stroke-linecap:round;stroke-linejoin:round;stroke-miterlimit:4;stroke-dasharray:none;paint-order:stroke fill markers"
           d="m 6.6981373,290.64435 c -0.8085465,0.6017 -1.7651654,0.60223 -2.6592568,0.49381 -0.411189,-0.0687 -0.8098836,-0.24912 -1.1782413,-0.49381 -0.027683,0.82841 -0.00396,1.6787 -0.011839,2.51554 0.0035,0.53593 -0.00697,1.07521 0.00516,1.60907 0.2397428,0.42563 0.6626656,0.5335 1.0236225,0.66659 0.7818446,0.21843 1.6167851,0.15449 2.3672359,-0.21902 0.1862437,-0.10763 0.3990477,-0.25209 0.4850368,-0.5007 -0.00612,-1.35535 0.012183,-2.71866 -0.00912,-4.06907 l -0.019713,-0.004 z"
           id="path3199" />
        <path
           id="path1158"
           style="fill:#808080;fill-rule:evenodd;stroke:#1a1a1a;stroke-width:0.5;stroke-linecap:round;stroke-linejoin:round;paint-order:fill markers stroke"
           d="m 6.7101371,290.12334 a 1.9226832,1.0413257 0 0 1 -1.9226833,1.04132 1.9226832,1.0413257 0 0 1 -1.9226832,-1.04132 1.9226832,1.0413257 0 0 1 1.9226832,-1.04132 1.9226832,1.0413257 0 0 1 1.9226833,1.04132 z" />
        <path
           id="path2561"
           style="fill:none;fill-rule:evenodd;stroke:#1a1a1a;stroke-width:0.5;stroke-linecap:round;stroke-linejoin:round;paint-order:fill markers stroke"
           d="m 6.7101371,294.50634 c -5.8e-6,0.57511 -0.8608188,1.04132 -1.9226833,1.04132 -1.0618645,0 -1.9226774,-0.46621 -1.9226832,-1.04132"
           sodipodi:nodetypes="csc" />
        <path
           style="fill:none;stroke:#1a1a1a;stroke-width:0.5;stroke-linecap:butt;stroke-linejoin:miter;stroke-miterlimit:4;stroke-dasharray:none;stroke-opacity:1"
           d="m 2.8647706,290.12334 v 4.383"
           id="path2596" />
        <path
           style="fill:none;stroke:#1a1a1a;stroke-width:0.5;stroke-linecap:butt;stroke-linejoin:miter;stroke-miterlimit:4;stroke-dasharray:none;stroke-opacity:1"
           d="m 6.7101371,290.12334 v 4.383"
           id="path2598" />
        <path
           id="path1047"
           style="fill:none;fill-rule:evenodd;stroke:#1a1a1a;stroke-width:0.5;stroke-linecap:round;stroke-linejoin:round;stroke-opacity:1;paint-order:fill markers stroke"
           d="m 6.7101371,292.32119 c -0.3328035,0.55134 -0.8608188,1.04132 -1.9226833,1.04132 -1.0508603,0 -1.6800149,-0.46621 -1.9226832,-1.04132"
           sodipodi:nodetypes="csc" />
        <path
           style="fill:none;stroke:#1a1a1a;stroke-width:0.5;stroke-linecap:butt;stroke-linejoin:miter;stroke-miterlimit:4;stroke-dasharray:none;stroke-opacity:1"
           d="m 4.7538361,291.09202 v 4.383"
           id="path3003" />
      </g>
    </g>
  </g>
</svg>
