<?xml version="1.0" encoding="UTF-8" standalone="no"?>
<svg
   width="32"
   height="32"
   viewBox="0 0 8.4666665 8.4666666"
   version="1.1"
   id="svg8"
   inkscape:version="1.1-dev (06c7a40, 2020-12-22)"
   sodipodi:docname="SOFT_BOOLEAN_primitive_tube.svg"
   xmlns:inkscape="http://www.inkscape.org/namespaces/inkscape"
   xmlns:sodipodi="http://sodipodi.sourceforge.net/DTD/sodipodi-0.dtd"
   xmlns="http://www.w3.org/2000/svg"
   xmlns:svg="http://www.w3.org/2000/svg"
   xmlns:rdf="http://www.w3.org/1999/02/22-rdf-syntax-ns#"
   xmlns:cc="http://creativecommons.org/ns#"
   xmlns:dc="http://purl.org/dc/elements/1.1/">
  <defs
     id="defs2" />
  <sodipodi:namedview
     id="base"
     pagecolor="#ffffff"
     bordercolor="#666666"
     borderopacity="1.0"
     inkscape:pageopacity="0.0"
     inkscape:pageshadow="2"
     inkscape:zoom="15.74074"
     inkscape:cx="33.861178"
     inkscape:cy="11.689412"
     inkscape:document-units="mm"
     inkscape:current-layer="g4557"
     showgrid="false"
     units="px"
     inkscape:window-width="1920"
     inkscape:window-height="1058"
     inkscape:window-x="-6"
     inkscape:window-y="-6"
     inkscape:window-maximized="1"
     inkscape:snap-page="true"
     inkscape:snap-object-midpoints="true"
     inkscape:snap-center="true"
     inkscape:object-paths="true"
     inkscape:snap-intersection-paths="true"
     inkscape:object-nodes="true"
     inkscape:snap-smooth-nodes="true"
     inkscape:snap-midpoints="true"
     inkscape:snap-bbox="true"
     inkscape:snap-global="false"
     fit-margin-top="0"
     fit-margin-left="0"
     fit-margin-right="0"
     fit-margin-bottom="0"
     inkscape:document-rotation="0"
     objecttolerance="10.0"
     gridtolerance="10.0"
     guidetolerance="10.0"
     inkscape:pagecheckerboard="0" />
  <metadata
     id="metadata5">
    <rdf:RDF>
      <cc:Work
         rdf:about="">
        <dc:format>image/svg+xml</dc:format>
        <dc:type
           rdf:resource="http://purl.org/dc/dcmitype/StillImage" />
      </cc:Work>
    </rdf:RDF>
  </metadata>
  <g
     inkscape:label="Layer 1"
     inkscape:groupmode="layer"
     id="layer1"
     transform="translate(-0.00937524,-288.55225)">
    <g
       id="g4557"
       transform="translate(-0.51112752,0.58911265)">
      <path
         style="fill:#666666;fill-opacity:1;fill-rule:evenodd;stroke:none;stroke-width:0.5;stroke-linecap:round;stroke-linejoin:round;stroke-miterlimit:4;stroke-dasharray:none;paint-order:stroke fill markers"
         d="m 7.3620145,290.64435 c -1.0894803,0.6017 -2.3784816,0.60223 -3.5832298,0.49381 -0.5540589,-0.0687 -1.0912821,-0.24912 -1.5876276,-0.49381 -0.037302,0.82841 -0.00534,1.6787 -0.015953,2.51554 0.00472,0.53593 -0.00939,1.07521 0.00695,1.60907 0.3230427,0.42563 0.8929123,0.5335 1.3792856,0.66659 1.0535007,0.21843 2.1785457,0.15449 3.1897447,-0.21902 0.250955,-0.10763 0.5376989,-0.25209 0.6535654,-0.5007 -0.00825,-1.35535 0.016416,-2.71866 -0.012294,-4.06907 l -0.026563,-0.004 z"
         id="path3199" />
      <path
         id="path1158"
         style="fill:#808080;fill-rule:evenodd;stroke:#1a1a1a;stroke-width:0.5;stroke-linecap:round;stroke-linejoin:round;paint-order:fill markers stroke"
         d="m 7.3781836,290.12334 a 2.5907298,1.0413257 0 0 1 -2.5907298,1.04132 2.5907298,1.0413257 0 0 1 -2.5907298,-1.04132 2.5907298,1.0413257 0 0 1 2.5907298,-1.04132 2.5907298,1.0413257 0 0 1 2.5907298,1.04132 z" />
      <path
         id="path2561"
         style="fill:none;fill-rule:evenodd;stroke:#1a1a1a;stroke-width:0.5;stroke-linecap:round;stroke-linejoin:round;paint-order:fill markers stroke"
         d="m 7.3781836,294.50634 c -7.8e-6,0.57511 -1.1599148,1.04132 -2.5907298,1.04132 -1.430815,0 -2.590722,-0.46621 -2.5907298,-1.04132"
         sodipodi:nodetypes="csc" />
      <path
         style="fill:none;stroke:#000000;stroke-width:0.5;stroke-linecap:butt;stroke-linejoin:miter;stroke-opacity:1;stroke-miterlimit:4;stroke-dasharray:none"
         d="m 2.196724,290.12334 v 4.383"
         id="path2596" />
      <path
         style="fill:none;stroke:#000000;stroke-width:0.5;stroke-linecap:butt;stroke-linejoin:miter;stroke-opacity:1;stroke-miterlimit:4;stroke-dasharray:none"
         d="m 7.3781836,290.12334 v 4.383"
         id="path2598" />
    </g>
  </g>
</svg>
