<?xml version="1.0" encoding="UTF-8" standalone="no"?>
<svg
   width="32"
   height="32"
   viewBox="0 0 8.4666665 8.4666666"
   version="1.1"
   id="svg8"
   inkscape:version="1.1.1 (3bf5ae0d25, 2021-09-20)"
   sodipodi:docname="MODELER_shift.svg"
   xmlns:inkscape="http://www.inkscape.org/namespaces/inkscape"
   xmlns:sodipodi="http://sodipodi.sourceforge.net/DTD/sodipodi-0.dtd"
   xmlns="http://www.w3.org/2000/svg"
   xmlns:svg="http://www.w3.org/2000/svg"
   xmlns:rdf="http://www.w3.org/1999/02/22-rdf-syntax-ns#"
   xmlns:cc="http://creativecommons.org/ns#"
   xmlns:dc="http://purl.org/dc/elements/1.1/">
  <defs
     id="defs2" />
  <sodipodi:namedview
     id="base"
     pagecolor="#ffffff"
     bordercolor="#666666"
     borderopacity="1.0"
     inkscape:pageopacity="0.0"
     inkscape:pageshadow="2"
     inkscape:zoom="22.627416"
     inkscape:cx="36.857943"
     inkscape:cy="24.041632"
     inkscape:document-units="mm"
     inkscape:current-layer="g19186"
     showgrid="false"
     units="px"
     inkscape:window-width="3840"
     inkscape:window-height="2068"
     inkscape:window-x="-12"
     inkscape:window-y="-12"
     inkscape:window-maximized="1"
     inkscape:snap-page="true"
     inkscape:snap-object-midpoints="true"
     inkscape:snap-center="true"
     inkscape:object-paths="true"
     inkscape:snap-intersection-paths="true"
     inkscape:object-nodes="true"
     inkscape:snap-smooth-nodes="true"
     inkscape:snap-midpoints="true"
     inkscape:snap-bbox="true"
     inkscape:snap-global="false"
     fit-margin-top="0"
     fit-margin-left="0"
     fit-margin-right="0"
     fit-margin-bottom="0"
     inkscape:document-rotation="0"
     inkscape:pagecheckerboard="0" />
  <metadata
     id="metadata5">
    <rdf:RDF>
      <cc:Work
         rdf:about="">
        <dc:format>image/svg+xml</dc:format>
        <dc:type
           rdf:resource="http://purl.org/dc/dcmitype/StillImage" />
      </cc:Work>
    </rdf:RDF>
  </metadata>
  <g
     inkscape:label="Layer 1"
     inkscape:groupmode="layer"
     id="layer1"
     transform="translate(-0.00937524,-288.55225)">
    <g
       id="g4557"
       transform="translate(-0.51112752,0.58911265)">
      <g
         id="g19186"
         transform="translate(0.86557329)">
        <path
           sodipodi:nodetypes="cccccccc"
           style="fill:#666666;fill-opacity:1;stroke:#666666;stroke-width:0.0519479;stroke-linecap:round;stroke-linejoin:round;stroke-miterlimit:4;stroke-dasharray:none;stroke-opacity:1"
           d="m 1.3757853,293.60258 -0.00438,-0.52733 c -0.00286,-0.83007 0.00153,-1.29019 0.012272,-1.28648 0.00914,0.003 0.7514289,0.42705 1.6494564,0.94198 l 1.6327774,0.93622 v 1.29298 c 0,0.71113 -0.0043,0.52724 -0.0043,0.52724 z"
           id="path2119" />
        <path
           style="fill:none;fill-opacity:1;stroke:#1a1a1a;stroke-width:0.5;stroke-linecap:round;stroke-linejoin:round;stroke-miterlimit:4;stroke-dasharray:none;stroke-opacity:1"
           d="m 1.2462366,291.48085 3.4457935,-2.47808 1.5508419,0.77926"
           id="path2109"
           sodipodi:nodetypes="ccc" />
        <path
           sodipodi:nodetypes="cc"
           style="fill:none;stroke:#1a1a1a;stroke-width:0.5;stroke-linecap:round;stroke-linejoin:bevel;stroke-miterlimit:4;stroke-dasharray:none;stroke-opacity:1"
           d="m 4.7808119,295.55554 v -2.04789"
           id="path2111" />
        <path
           sodipodi:nodetypes="ccc"
           style="fill:none;stroke:#1a1a1a;stroke-width:0.5;stroke-linecap:round;stroke-linejoin:round;stroke-miterlimit:4;stroke-dasharray:none;stroke-opacity:1"
           d="m 6.530289,294.13611 -1.7494771,1.41943 -3.5345753,-2.0268"
           id="path2113" />
        <path
           sodipodi:nodetypes="cc"
           style="fill:none;stroke:#1a1a1a;stroke-width:0.5;stroke-linecap:round;stroke-linejoin:bevel;stroke-miterlimit:4;stroke-dasharray:none;stroke-opacity:1"
           d="m 1.2462366,293.52874 v -2.04789"
           id="path2115" />
        <path
           style="fill:none;fill-opacity:1;stroke:#1a1a1a;stroke-width:0.5;stroke-linecap:round;stroke-linejoin:round;stroke-miterlimit:4;stroke-dasharray:none;paint-order:stroke fill markers"
           d="m 6.530289,294.13611 -0.00917,-2.04317 -1.7759952,-0.92556"
           id="path16478"
           sodipodi:nodetypes="ccc" />
        <path
           style="fill:none;fill-opacity:1;stroke:#1a1a1a;stroke-width:0.499999;stroke-linecap:round;stroke-linejoin:round;stroke-miterlimit:4;stroke-dasharray:none;paint-order:stroke fill markers"
           d="M 4.7451238,291.16738 6.231179,289.95743"
           id="path16513"
           sodipodi:nodetypes="cc" />
        <path
           style="fill:none;fill-opacity:1;stroke:#1a1a1a;stroke-width:0.499999;stroke-linecap:round;stroke-linejoin:round;stroke-miterlimit:4;stroke-dasharray:none;paint-order:stroke fill markers"
           d="M 4.8127992,293.52613 1.2462366,291.48085"
           id="path17882"
           sodipodi:nodetypes="cc" />
        <path
           style="fill:none;fill-opacity:1;stroke:#1a1a1a;stroke-width:0.499999;stroke-linecap:round;stroke-linejoin:round;stroke-miterlimit:4;stroke-dasharray:none;paint-order:stroke fill markers"
           d="m 4.7808119,293.50765 1.7403069,-1.41471"
           id="path17884" />
        <path
           sodipodi:nodetypes="cc"
           style="fill:none;stroke:#1a1a1a;stroke-width:0.5;stroke-linecap:round;stroke-linejoin:round;stroke-miterlimit:4;stroke-dasharray:none;stroke-opacity:1"
           d="m 6.242872,289.78203 c 0,-0.0445 0,1.36526 0,2.04789"
           id="path17966" />
        <path
           style="fill:#666666;fill-opacity:1;stroke:none;stroke-width:1.88977;stroke-linecap:round;stroke-linejoin:round;stroke-miterlimit:4;stroke-dasharray:none;paint-order:stroke fill markers"
           d="m 20.352095,24.054325 c 3.72e-4,-1.428929 0.01529,-2.619713 0.03315,-2.646187 0.046,-0.0682 4.567704,-3.73999 4.584339,-3.722656 0.0075,0.0079 0.02024,1.177004 0.02823,2.598104 l 0.01452,2.583819 -1.678595,1.363356 c -0.923228,0.749847 -1.971935,1.601465 -2.33046,1.892486 l -0.651864,0.52913 z"
           id="path19417"
           transform="matrix(0.26458333,0,0,0.26458333,-0.34507053,287.96314)" />
        <path
           style="fill:#808080;fill-opacity:1;stroke:none;stroke-width:1.88977;stroke-linecap:round;stroke-linejoin:round;stroke-miterlimit:4;stroke-dasharray:none;paint-order:stroke fill markers"
           d="M 13.536481,16.494346 C 10.408089,14.702341 7.8475886,13.223299 7.8464807,13.207586 7.8453727,13.191873 10.106656,11.552057 12.871554,9.5635525 15.636452,7.5750476 18.174392,5.7495624 18.51142,5.5069188 l 0.612779,-0.4411701 2.233283,1.1163799 c 2.162619,1.0810561 2.230628,1.1188779 2.149357,1.1953256 -0.07321,0.068862 -3.80654,3.1097848 -4.698104,3.8267588 -0.481856,0.387497 -0.623985,0.750553 -0.480851,1.22829 0.105179,0.351058 0.212369,0.417297 3.115247,1.925102 l 2.748994,1.427874 -2.439635,1.984445 c -1.341799,1.091445 -2.459523,1.984033 -2.483829,1.983529 -0.02431,-5.04e-4 -2.603788,-1.467102 -5.73218,-3.259107 z"
           id="path19530"
           transform="matrix(0.26458333,0,0,0.26458333,-0.34507053,287.96314)" />
        <path
           style="fill:#666666;fill-opacity:1;stroke:none;stroke-width:1.88977;stroke-linecap:round;stroke-linejoin:round;stroke-miterlimit:4;stroke-dasharray:none;paint-order:stroke fill markers"
           d="m 22.450641,12.691634 c -0.777817,-0.406777 -1.409721,-0.754539 -1.40423,-0.772804 0.0055,-0.01827 0.452958,-0.393608 0.994369,-0.834094 0.541412,-0.440486 1.188231,-0.968034 1.437376,-1.1723283 l 0.45299,-0.3714444 v 1.9470327 c 0,1.070869 -0.01491,1.946178 -0.03314,1.945133 -0.01823,-10e-4 -0.669542,-0.334718 -1.44736,-0.741495 z"
           id="path19686"
           transform="matrix(0.26458333,0,0,0.26458333,-0.34507053,287.96314)" />
      </g>
    </g>
  </g>
</svg>
