<?xml version="1.0" encoding="UTF-8" standalone="no"?>
<svg
   sodipodi:docname="MODELER_polygons.svg"
   inkscape:version="1.1.1 (3bf5ae0d25, 2021-09-20)"
   id="svg8"
   version="1.1"
   viewBox="0 0 8.4666665 8.4666666"
   height="32"
   width="32"
   xmlns:inkscape="http://www.inkscape.org/namespaces/inkscape"
   xmlns:sodipodi="http://sodipodi.sourceforge.net/DTD/sodipodi-0.dtd"
   xmlns="http://www.w3.org/2000/svg"
   xmlns:svg="http://www.w3.org/2000/svg"
   xmlns:rdf="http://www.w3.org/1999/02/22-rdf-syntax-ns#"
   xmlns:cc="http://creativecommons.org/ns#"
   xmlns:dc="http://purl.org/dc/elements/1.1/">
  <defs
     id="defs2" />
  <sodipodi:namedview
     inkscape:document-rotation="0"
     fit-margin-bottom="0"
     fit-margin-right="0"
     fit-margin-left="0"
     fit-margin-top="0"
     inkscape:snap-global="false"
     inkscape:snap-bbox="true"
     inkscape:snap-midpoints="true"
     inkscape:snap-smooth-nodes="true"
     inkscape:object-nodes="true"
     inkscape:snap-intersection-paths="true"
     inkscape:object-paths="true"
     inkscape:snap-center="true"
     inkscape:snap-object-midpoints="true"
     inkscape:snap-page="true"
     inkscape:window-maximized="1"
     inkscape:window-y="-12"
     inkscape:window-x="-12"
     inkscape:window-height="2068"
     inkscape:window-width="3840"
     units="px"
     showgrid="false"
     inkscape:current-layer="g4557"
     inkscape:document-units="mm"
     inkscape:cy="11.375"
     inkscape:cx="8.9375"
     inkscape:zoom="16"
     inkscape:pageshadow="2"
     inkscape:pageopacity="0.0"
     borderopacity="1.0"
     bordercolor="#666666"
     pagecolor="#ffffff"
     id="base"
     inkscape:pagecheckerboard="0" />
  <metadata
     id="metadata5">
    <rdf:RDF>
      <cc:Work
         rdf:about="">
        <dc:format>image/svg+xml</dc:format>
        <dc:type
           rdf:resource="http://purl.org/dc/dcmitype/StillImage" />
        <dc:title />
      </cc:Work>
    </rdf:RDF>
  </metadata>
  <g
     transform="translate(-0.00937524,-288.55225)"
     id="layer1"
     inkscape:groupmode="layer"
     inkscape:label="Layer 1">
    <g
       transform="translate(-0.51112752,0.58911265)"
       id="g4557">
      <ellipse
         style="fill:#666666;fill-opacity:1;stroke:#1a1a1a;stroke-width:0.5;stroke-linecap:round;stroke-linejoin:round;stroke-miterlimit:4;stroke-dasharray:none;stroke-opacity:1"
         id="path4140"
         cx="4.7538362"
         cy="292.19647"
         rx="3.6197982"
         ry="3.6197989" />
      <path
         style="fill:#1a1a1a;fill-opacity:1;stroke:#1a1a1a;stroke-width:0.499999;stroke-linecap:round;stroke-linejoin:round;stroke-opacity:1;paint-order:stroke fill markers"
         d="m 6.8994203,292.20958 c -0.1962399,-0.0104 -0.292535,-0.26522 -0.4824606,-0.32364 -0.3098302,-0.13005 -0.6398555,-0.23833 -0.8942157,-0.468 -0.2767783,-0.19735 -0.575873,-0.35871 -0.8609037,-0.54302 0.1955487,0.10506 -0.2160145,-0.15015 -0.2895897,-0.18663 -0.2430671,-0.12833 -0.4086549,-0.36789 -0.664649,-0.47417 l -0.00321,0.005 -2.427e-4,0.0112"
         id="path1312" />
      <path
         style="fill:#1a1a1a;fill-opacity:1;stroke:#1a1a1a;stroke-width:0.499999;stroke-linecap:round;stroke-linejoin:round;stroke-opacity:1;paint-order:stroke fill markers"
         d="m 5.7563363,294.16925 c -0.336861,-0.14288 -0.5846921,-0.42385 -0.8884388,-0.61992 -0.2110945,-0.17287 -0.4426359,-0.31492 -0.6757018,-0.45569 -0.079852,-0.0515 -0.3761066,-0.2429 -0.1380935,-0.0958 0.010226,-0.003 -0.2157718,-0.15544 -0.3039742,-0.20317 -0.2519754,-0.14355 -0.4412147,-0.37229 -0.6927576,-0.51759 -0.1655793,-0.12188 -0.3335041,-0.24644 -0.4849193,-0.38336"
         id="path1314" />
      <path
         style="fill:#1a1a1a;fill-opacity:1;stroke:#1a1a1a;stroke-width:0.499999;stroke-linecap:round;stroke-linejoin:round;stroke-opacity:1;paint-order:stroke fill markers"
         d="m 6.6947678,290.90619 c -0.045863,0.15394 -0.1676821,0.27598 -0.2433018,0.41744 -0.1666731,0.26955 -0.3102959,0.55362 -0.4994258,0.80913 -0.1916333,0.26627 -0.3984932,0.52147 -0.5793258,0.79571 -0.1078822,0.16198 -0.2106006,0.32807 -0.3348211,0.47762 -0.1442977,0.20932 -0.3356666,0.38383 -0.4561209,0.60971 -0.063246,0.0856 -0.16741,0.24967 -0.1971572,0.28218"
         id="path1322" />
      <path
         style="fill:#1a1a1a;fill-opacity:1;stroke:#1a1a1a;stroke-width:0.499999;stroke-linecap:round;stroke-linejoin:round;stroke-opacity:1;paint-order:stroke fill markers"
         d="m 5.1009979,289.92681 c -0.2855293,0.38852 -0.5882511,0.76408 -0.8761827,1.15071 -0.056697,0.11563 -0.1597207,0.24003 -0.2381573,0.3557 -0.1208432,0.16027 -0.1987542,0.35877 -0.3472433,0.49394 -0.098945,0.1027 -0.1587959,0.24881 -0.2494996,0.36408 -0.089495,0.12121 -0.092282,0.18593 -0.1950414,0.30662 -0.076262,0.13744 -0.1370825,0.28488 -0.2467101,0.40155 -0.092449,0.0791 -0.1390906,0.28769 -0.2150006,0.30707 l 0.010939,-0.0157"
         id="path1324" />
    </g>
  </g>
</svg>
