<?xml version="1.0" encoding="UTF-8" standalone="no"?>
<svg
   width="32"
   height="32"
   viewBox="0 0 8.4666665 8.4666666"
   version="1.1"
   id="svg8"
   inkscape:version="1.1.1 (3bf5ae0d25, 2021-09-20)"
   sodipodi:docname="MODELER_bevel_pro.svg"
   xmlns:inkscape="http://www.inkscape.org/namespaces/inkscape"
   xmlns:sodipodi="http://sodipodi.sourceforge.net/DTD/sodipodi-0.dtd"
   xmlns="http://www.w3.org/2000/svg"
   xmlns:svg="http://www.w3.org/2000/svg"
   xmlns:rdf="http://www.w3.org/1999/02/22-rdf-syntax-ns#"
   xmlns:cc="http://creativecommons.org/ns#"
   xmlns:dc="http://purl.org/dc/elements/1.1/">
  <defs
     id="defs2" />
  <sodipodi:namedview
     id="base"
     pagecolor="#ffffff"
     bordercolor="#666666"
     borderopacity="1.0"
     inkscape:pageopacity="0.0"
     inkscape:pageshadow="2"
     inkscape:zoom="22.627416"
     inkscape:cx="42.868351"
     inkscape:cy="18.649942"
     inkscape:document-units="mm"
     inkscape:current-layer="g4557"
     showgrid="false"
     units="px"
     inkscape:window-width="3840"
     inkscape:window-height="2068"
     inkscape:window-x="-12"
     inkscape:window-y="-12"
     inkscape:window-maximized="1"
     inkscape:snap-page="true"
     inkscape:snap-object-midpoints="true"
     inkscape:snap-center="true"
     inkscape:object-paths="true"
     inkscape:snap-intersection-paths="true"
     inkscape:object-nodes="true"
     inkscape:snap-smooth-nodes="true"
     inkscape:snap-midpoints="true"
     inkscape:snap-bbox="true"
     inkscape:snap-global="false"
     fit-margin-top="0"
     fit-margin-left="0"
     fit-margin-right="0"
     fit-margin-bottom="0"
     inkscape:document-rotation="0"
     inkscape:pagecheckerboard="0" />
  <metadata
     id="metadata5">
    <rdf:RDF>
      <cc:Work
         rdf:about="">
        <dc:format>image/svg+xml</dc:format>
        <dc:type
           rdf:resource="http://purl.org/dc/dcmitype/StillImage" />
      </cc:Work>
    </rdf:RDF>
  </metadata>
  <g
     inkscape:label="Layer 1"
     inkscape:groupmode="layer"
     id="layer1"
     transform="translate(-0.00937524,-288.55225)">
    <g
       id="g4557"
       transform="translate(-0.51112752,0.58911265)">
      <path
         style="fill:#808080;fill-opacity:1;stroke-width:0.699998;stroke-linecap:round;stroke-linejoin:round;paint-order:fill markers stroke"
         d="m 4.1267637,294.54507 c -0.9530758,-0.0845 -1.8712165,-0.46033 -2.623972,-1.07403 l -0.1054409,-0.0859 v -0.79 -0.79001 l 0.1777432,0.11996 c 0.5472182,0.36933 1.2064426,0.65391 1.8286465,0.78942 0.3916045,0.0853 0.6576729,0.11341 1.0724847,0.11339 0.4062127,-3e-5 1.1985336,-1.09327 1.538777,-1.17144 0.9134782,-0.20999 2.0176708,-0.81978 2.0176708,-0.81978 l 0.1235167,-0.128 -0.046772,1.11196 v 0.70272 l -0.094188,0.12862 c -0.4782917,0.65313 -1.1566427,1.21747 -1.8482282,1.53762 -0.3660063,0.16943 -0.7655615,0.28463 -1.1665839,0.33635 -0.1931842,0.0249 -0.6868354,0.0357 -0.8736533,0.0192 z"
         id="path3633"
         sodipodi:nodetypes="cccccccccccccscccc" />
      <path
         style="fill:#666666;fill-opacity:1;stroke-width:0.7;stroke-linecap:round;stroke-linejoin:round;paint-order:fill markers stroke"
         d="m 3.25195,293.02495 c -1.2234767,-0.22146 -0.9346144,-0.91976 -1.7995653,-1.50006 0.00222,-0.002 0.5078851,-0.30142 0.9950734,-0.65146 0.4871884,-0.35005 1.1967719,-0.86001 1.5768522,-1.13324 0.3800805,-0.27324 0.6963561,-0.49512 0.7028347,-0.49307 0.054971,0.0174 3.2474164,1.52511 3.2448045,1.53244 -0.00991,0.0278 -1.7250168,0.62208 -1.8528439,0.7384 -0.9917056,0.90247 -1.6010113,1.59346 -2.8671556,1.50699 z"
         id="path3477"
         sodipodi:nodetypes="cccccccc" />
      <path
         id="path9255"
         style="fill:none;fill-opacity:1;stroke:#1a1a1a;stroke-width:0.499999;stroke-linecap:round;stroke-linejoin:round;stroke-miterlimit:4;stroke-dasharray:none;stroke-opacity:1;paint-order:stroke fill markers"
         d="m 8.2616321,290.67822 -3.5698078,-1.67535 -3.4457844,2.47788"
         sodipodi:nodetypes="ccc" />
      <path
         id="path12424"
         style="fill:none;fill-opacity:1;stroke:#1a1a1a;stroke-width:0.5;stroke-linecap:round;stroke-linejoin:round;stroke-miterlimit:4;stroke-dasharray:none;stroke-opacity:1;paint-order:stroke fill markers"
         d="m 8.2616321,292.72611 v -2.04789"
         sodipodi:nodetypes="cc" />
      <path
         id="path12554"
         style="fill:none;fill-opacity:1;stroke:#1a1a1a;stroke-width:0.499999;stroke-linecap:round;stroke-linejoin:round;stroke-miterlimit:4;stroke-dasharray:none;stroke-opacity:1;paint-order:stroke fill markers"
         d="m 8.2616321,292.72611 c 0,0 -1.1732745,1.78923 -3.3780995,1.9658 -2.204825,0.17657 -3.637296,-1.16317 -3.637296,-1.16317 m 0,0 v -2.04789"
         sodipodi:nodetypes="czccc" />
      <path
         id="path3211"
         style="fill:none;fill-opacity:1;stroke:#1a1a1a;stroke-width:0.499999;stroke-linecap:round;stroke-linejoin:round;stroke-miterlimit:4;stroke-dasharray:none;stroke-opacity:1;paint-order:stroke fill markers"
         d="m 8.2616321,290.67822 c 0,0 -1.6176101,0.38606 -3.3780995,1.9658 -1.7604894,1.57974 -3.637296,-1.16317 -3.637296,-1.16317"
         sodipodi:nodetypes="czc" />
    </g>
  </g>
</svg>
