<?xml version="1.0" encoding="UTF-8" standalone="no"?>
<svg
   width="32"
   height="32"
   viewBox="0 0 8.4666665 8.4666666"
   version="1.1"
   id="svg8"
   inkscape:version="1.1.1 (3bf5ae0d25, 2021-09-20)"
   sodipodi:docname="MODELER_extract.svg"
   xmlns:inkscape="http://www.inkscape.org/namespaces/inkscape"
   xmlns:sodipodi="http://sodipodi.sourceforge.net/DTD/sodipodi-0.dtd"
   xmlns="http://www.w3.org/2000/svg"
   xmlns:svg="http://www.w3.org/2000/svg"
   xmlns:rdf="http://www.w3.org/1999/02/22-rdf-syntax-ns#"
   xmlns:cc="http://creativecommons.org/ns#"
   xmlns:dc="http://purl.org/dc/elements/1.1/">
  <defs
     id="defs2" />
  <sodipodi:namedview
     id="base"
     pagecolor="#ffffff"
     bordercolor="#666666"
     borderopacity="1.0"
     inkscape:pageopacity="0.0"
     inkscape:pageshadow="2"
     inkscape:zoom="11.313708"
     inkscape:cx="8.4852817"
     inkscape:cy="18.119612"
     inkscape:document-units="mm"
     inkscape:current-layer="layer1"
     showgrid="false"
     units="px"
     inkscape:window-width="3840"
     inkscape:window-height="2068"
     inkscape:window-x="-12"
     inkscape:window-y="-12"
     inkscape:window-maximized="1"
     inkscape:snap-page="true"
     inkscape:snap-object-midpoints="true"
     inkscape:snap-center="true"
     inkscape:object-paths="true"
     inkscape:snap-intersection-paths="true"
     inkscape:object-nodes="true"
     inkscape:snap-smooth-nodes="true"
     inkscape:snap-midpoints="true"
     inkscape:snap-bbox="true"
     inkscape:snap-global="false"
     fit-margin-top="0"
     fit-margin-left="0"
     fit-margin-right="0"
     fit-margin-bottom="0"
     inkscape:document-rotation="0"
     objecttolerance="10.0"
     gridtolerance="10.0"
     guidetolerance="10.0"
     inkscape:pagecheckerboard="0" />
  <metadata
     id="metadata5">
    <rdf:RDF>
      <cc:Work
         rdf:about="">
        <dc:format>image/svg+xml</dc:format>
        <dc:type
           rdf:resource="http://purl.org/dc/dcmitype/StillImage" />
      </cc:Work>
    </rdf:RDF>
  </metadata>
  <g
     inkscape:label="Layer 1"
     inkscape:groupmode="layer"
     id="layer1"
     transform="translate(-0.00937524,-288.55225)">
    <path
       style="fill:#4d4d4d;fill-opacity:1;stroke:none;stroke-width:0.0545623;stroke-linecap:round;stroke-linejoin:round;stroke-miterlimit:4;stroke-dasharray:none;stroke-opacity:1"
       d="m 3.6784979,293.04446 7.829e-4,-0.88418 1.1540905,-0.93863 1.1540903,-0.93864 v 0.88546 0.88545 l -1.1395232,0.92814 c -0.626738,0.51048 -1.1464343,0.9323 -1.1548808,0.93736 -0.012231,0.007 -0.015197,-0.17074 -0.014566,-0.87496 z"
       id="path2117" />
    <path
       style="fill:#4d4d4d;fill-opacity:1;stroke:#666666;stroke-width:0.0519479;stroke-linecap:round;stroke-linejoin:round;stroke-miterlimit:4;stroke-dasharray:none;stroke-opacity:1"
       d="m 2.4479692,293.26428 -1.1170888,-0.64269 -0.00298,-0.88174 c -0.00195,-0.56638 0.00104,-0.88034 0.00836,-0.8778 0.00622,0.002 0.511601,0.29138 1.1230117,0.64274 l 1.1116561,0.63881 v 0.88224 c 0,0.48522 -0.00131,0.88198 -0.00293,0.88167 -0.00161,-2.9e-4 -0.5056143,-0.28975 -1.1200133,-0.64323 z"
       id="path2119" />
    <path
       style="fill:#4d4d4d;fill-opacity:1;stroke:#1a1a1a;stroke-width:0.5;stroke-linecap:round;stroke-linejoin:round;stroke-miterlimit:4;stroke-dasharray:none;stroke-opacity:1"
       d="m 1.2426788,290.65194 2.3460253,-1.69086 2.4301849,1.14321 -2.369739,1.9306 z"
       id="path2109"
       sodipodi:nodetypes="ccccc" />
    <path
       style="fill:none;stroke:#1a1a1a;stroke-width:0.5;stroke-linecap:round;stroke-linejoin:bevel;stroke-miterlimit:4;stroke-dasharray:none;stroke-opacity:1"
       d="m 3.64915,294.10922 v -2.07433"
       id="path2111" />
    <path
       style="fill:none;stroke:#1a1a1a;stroke-width:0.5;stroke-linecap:round;stroke-linejoin:round;stroke-miterlimit:4;stroke-dasharray:none;stroke-opacity:1"
       d="m 6.0188891,290.10429 v 2.07434 L 3.64915,294.10922 1.2426788,292.72628"
       id="path2113" />
    <path
       style="fill:none;stroke:#1a1a1a;stroke-width:0.5;stroke-linecap:round;stroke-linejoin:bevel;stroke-miterlimit:4;stroke-dasharray:none;stroke-opacity:1"
       d="m 1.2426788,292.72628 v -2.07434"
       id="path2115" />
    <path
       style="fill:#666666;fill-opacity:1;stroke:#666666;stroke-width:0.0545624;stroke-linecap:round;stroke-linejoin:round;stroke-miterlimit:4;stroke-dasharray:none;stroke-opacity:1"
       d="m 4.6430502,295.42816 8.698e-4,-0.98147 1.2819546,-1.04191 1.2819544,-1.04192 v 0.98289 0.98288 l -1.2657734,1.03026 c -0.6961756,0.56665 -1.2734501,1.03489 -1.2828324,1.04051 -0.013586,0.008 -0.016881,-0.18953 -0.016181,-0.97124 z"
       id="path2726" />
    <path
       style="fill:#666666;fill-opacity:1;stroke:#666666;stroke-width:0.0519479;stroke-linecap:round;stroke-linejoin:round;stroke-miterlimit:4;stroke-dasharray:none;stroke-opacity:1"
       d="M 3.2761888,295.67217 2.0353353,294.95876 2.0320253,293.98 c -0.00217,-0.6287 0.00116,-0.97721 0.00929,-0.97439 0.00691,0.002 0.5682824,0.32344 1.2474326,0.71347 l 1.2348187,0.7091 v 0.97931 c 0,0.53861 -0.00146,0.97903 -0.00325,0.97869 -0.00179,-3.3e-4 -0.5616322,-0.32164 -1.2441018,-0.71401 z"
       id="path2728" />
    <path
       style="fill:#808080;fill-opacity:1;stroke:#1a1a1a;stroke-width:0.5;stroke-linecap:round;stroke-linejoin:round;stroke-miterlimit:4;stroke-dasharray:none;stroke-opacity:1"
       d="m 1.9373616,292.77238 2.6059464,-1.87691 2.6994302,1.269 -2.6322873,2.14303 z"
       id="path2730"
       sodipodi:nodetypes="ccccc" />
    <path
       style="fill:none;stroke:#1a1a1a;stroke-width:0.5;stroke-linecap:round;stroke-linejoin:bevel;stroke-miterlimit:4;stroke-dasharray:none;stroke-opacity:1"
       d="M 4.6104509,296.61008 V 294.3075"
       id="path2732" />
    <path
       style="fill:none;stroke:#1a1a1a;stroke-width:0.5;stroke-linecap:round;stroke-linejoin:round;stroke-miterlimit:4;stroke-dasharray:none;stroke-opacity:1"
       d="m 7.2427384,292.16447 v 2.30259 l -2.6322875,2.14302 -2.6730893,-1.53511"
       id="path2734" />
    <path
       style="fill:none;stroke:#1a1a1a;stroke-width:0.5;stroke-linecap:round;stroke-linejoin:bevel;stroke-miterlimit:4;stroke-dasharray:none;stroke-opacity:1"
       d="m 1.9373616,295.07497 v -2.30259"
       id="path2736" />
  </g>
</svg>
