<?xml version="1.0" encoding="UTF-8" standalone="no"?>
<svg
   width="32"
   height="32"
   viewBox="0 0 8.4666665 8.4666666"
   version="1.1"
   id="svg8"
   inkscape:version="1.1.1 (3bf5ae0d25, 2021-09-20)"
   sodipodi:docname="MODELER_cut_polygons.svg"
   xmlns:inkscape="http://www.inkscape.org/namespaces/inkscape"
   xmlns:sodipodi="http://sodipodi.sourceforge.net/DTD/sodipodi-0.dtd"
   xmlns="http://www.w3.org/2000/svg"
   xmlns:svg="http://www.w3.org/2000/svg"
   xmlns:rdf="http://www.w3.org/1999/02/22-rdf-syntax-ns#"
   xmlns:cc="http://creativecommons.org/ns#"
   xmlns:dc="http://purl.org/dc/elements/1.1/">
  <defs
     id="defs2">
    <linearGradient
       gradientTransform="matrix(0.0137384,0,0,0.0137384,1.2368743,288.67919)"
       id="linear-gradient"
       x1="256"
       y1="544.82001"
       x2="256"
       y2="-32.82"
       gradientUnits="userSpaceOnUse">
      <stop
         offset="0"
         stop-color="#231f20"
         id="stop2" />
      <stop
         offset="1"
         stop-color="#58595b"
         id="stop4" />
    </linearGradient>
  </defs>
  <sodipodi:namedview
     id="base"
     pagecolor="#ffffff"
     bordercolor="#666666"
     borderopacity="1.0"
     inkscape:pageopacity="0.0"
     inkscape:pageshadow="2"
     inkscape:zoom="16"
     inkscape:cx="23.5"
     inkscape:cy="18.0625"
     inkscape:document-units="mm"
     inkscape:current-layer="g4557"
     showgrid="false"
     units="px"
     inkscape:window-width="3840"
     inkscape:window-height="2068"
     inkscape:window-x="-12"
     inkscape:window-y="-12"
     inkscape:window-maximized="1"
     inkscape:snap-page="true"
     inkscape:snap-object-midpoints="true"
     inkscape:snap-center="true"
     inkscape:object-paths="true"
     inkscape:snap-intersection-paths="true"
     inkscape:object-nodes="true"
     inkscape:snap-smooth-nodes="true"
     inkscape:snap-midpoints="true"
     inkscape:snap-bbox="true"
     inkscape:snap-global="true"
     fit-margin-top="0"
     fit-margin-left="0"
     fit-margin-right="0"
     fit-margin-bottom="0"
     inkscape:document-rotation="0"
     inkscape:pagecheckerboard="0" />
  <metadata
     id="metadata5">
    <rdf:RDF>
      <cc:Work
         rdf:about="">
        <dc:format>image/svg+xml</dc:format>
        <dc:type
           rdf:resource="http://purl.org/dc/dcmitype/StillImage" />
        <dc:title />
      </cc:Work>
    </rdf:RDF>
  </metadata>
  <g
     inkscape:label="Layer 1"
     inkscape:groupmode="layer"
     id="layer1"
     transform="translate(-0.00937524,-288.55225)">
    <g
       id="g4557"
       transform="translate(-0.51112752,0.58911265)">
      <path
         id="path11"
         style="fill:#1a1a1a;fill-opacity:1;stroke:none;stroke-width:0.0125112;stroke-opacity:1"
         d="m 3.0106368,289.11423 c -0.042874,0.004 -0.085299,0.0361 -0.1358689,0.0961 -0.341106,0.40456 -0.1425924,0.91279 0.1372276,1.27762 l 1.218292,1.5865 -0.749997,1.02218 a 1.1141027,1.1141027 0 0 0 -0.3672991,-0.0621 c -0.6175546,0 -1.1186546,0.5021 -1.1186546,1.12182 0,0.61972 0.5009797,1.12228 1.1186546,1.12228 0.6176753,0 1.1177491,-0.50209 1.1177491,-1.12183 a 1.1184373,1.1184373 0 0 0 -0.1376806,-0.53939 l 0.660776,-0.86141 0.6607761,0.86141 a 1.1186781,1.1186781 0 0 0 -0.1381334,0.53985 c 0,0.61972 0.5007675,1.12183 1.1182019,1.12183 0.6174341,0 1.1186546,-0.50211 1.1186546,-1.12183 0,-0.61973 -0.5009799,-1.12228 -1.1186546,-1.12228 a 1.1153068,1.1153068 0 0 0 -0.3672992,0.0621 l -0.749997,-1.02219 1.2182921,-1.58695 c 0.2798201,-0.36483 0.4780295,-0.87306 0.1363217,-1.27762 -0.1348532,-0.15978 -0.2114581,-0.12276 -0.3944728,0.12636 l -1.4836894,2.02351 -1.4845951,-2.02353 c -0.1142337,-0.15571 -0.1871467,-0.22871 -0.258604,-0.22239 z m 1.7431991,2.67527 a 0.26043492,0.26043492 0 1 1 -0.2595098,0.26041 0.25995331,0.25995331 0 0 1 0.2595098,-0.26041 z m -1.6408445,1.8134 a 0.55386066,0.55386066 0 1 1 -0.5529866,0.55388 0.55386066,0.55386066 0 0 1 0.5529866,-0.55388 z m 3.2821419,0 a 0.55386066,0.55386066 0 1 1 -0.552534,0.55388 0.55386066,0.55386066 0 0 1 0.552534,-0.55388 z" />
    </g>
  </g>
</svg>
