<?xml version="1.0" encoding="UTF-8" standalone="no"?>
<svg
   width="32"
   height="32"
   viewBox="0 0 8.4666665 8.4666666"
   version="1.1"
   id="svg8"
   inkscape:version="1.1.1 (3bf5ae0d25, 2021-09-20)"
   sodipodi:docname="MODELER_pan.svg"
   xmlns:inkscape="http://www.inkscape.org/namespaces/inkscape"
   xmlns:sodipodi="http://sodipodi.sourceforge.net/DTD/sodipodi-0.dtd"
   xmlns="http://www.w3.org/2000/svg"
   xmlns:svg="http://www.w3.org/2000/svg"
   xmlns:rdf="http://www.w3.org/1999/02/22-rdf-syntax-ns#"
   xmlns:cc="http://creativecommons.org/ns#"
   xmlns:dc="http://purl.org/dc/elements/1.1/">
  <defs
     id="defs2" />
  <sodipodi:namedview
     id="base"
     pagecolor="#ffffff"
     bordercolor="#666666"
     borderopacity="1.0"
     inkscape:pageopacity="0.0"
     inkscape:pageshadow="2"
     inkscape:zoom="22.577795"
     inkscape:cx="33.484226"
     inkscape:cy="-2.7903522"
     inkscape:document-units="mm"
     inkscape:current-layer="g4557"
     showgrid="false"
     units="px"
     inkscape:window-width="3840"
     inkscape:window-height="2068"
     inkscape:window-x="-12"
     inkscape:window-y="-12"
     inkscape:window-maximized="1"
     inkscape:snap-page="true"
     inkscape:snap-object-midpoints="true"
     inkscape:snap-center="true"
     inkscape:object-paths="true"
     inkscape:snap-intersection-paths="true"
     inkscape:object-nodes="true"
     inkscape:snap-smooth-nodes="true"
     inkscape:snap-midpoints="true"
     inkscape:snap-bbox="true"
     inkscape:snap-global="true"
     fit-margin-top="0"
     fit-margin-left="0"
     fit-margin-right="0"
     fit-margin-bottom="0"
     inkscape:document-rotation="0"
     objecttolerance="10.0"
     gridtolerance="10.0"
     guidetolerance="10.0"
     inkscape:pagecheckerboard="0" />
  <metadata
     id="metadata5">
    <rdf:RDF>
      <cc:Work
         rdf:about="">
        <dc:format>image/svg+xml</dc:format>
        <dc:type
           rdf:resource="http://purl.org/dc/dcmitype/StillImage" />
      </cc:Work>
    </rdf:RDF>
  </metadata>
  <g
     inkscape:label="Layer 1"
     inkscape:groupmode="layer"
     id="layer1"
     transform="translate(-0.00937524,-288.55225)">
    <g
       id="g4557"
       transform="matrix(1.2948522,0,0,1.2948522,-2.2992217,-85.566214)"
       style="stroke:#999999;stroke-opacity:1;stroke-width:0.38614446;stroke-miterlimit:4;stroke-dasharray:none;stroke-linejoin:round;stroke-linecap:round">
      <rect
         style="fill:#adadad;fill-opacity:1;stroke:none;stroke-width:0.386144;stroke-linecap:round;stroke-linejoin:round;paint-order:stroke fill markers"
         id="rect1351"
         width="6.5387125"
         height="6.5387125"
         x="1.782904"
         y="288.92755"
         ry="0.75855422" />
      <g
         id="g4680"
         transform="matrix(0.00363547,0,0,0.00363547,3.2345241,290.37918)"
         style="fill:#000000;fill-opacity:1;stroke:#000000;stroke-width:42.4863;stroke-miterlimit:4;stroke-dasharray:none;stroke-opacity:1">
        <g
           transform="matrix(0.1,0,0,-0.1,0,511)"
           id="g4678"
           style="fill:#000000;fill-opacity:1;stroke:#000000;stroke-width:424.863;stroke-miterlimit:4;stroke-dasharray:none;stroke-opacity:1">
          <path
             d="m 4069.5,4067.7 -942.3,-942.3 h 654.9 652.6 v -1225 -1225 h -1225 -1225 L 1980,1323.2 1972.9,1971 1035.3,1035.8 100,98.2 l 942.3,-942.3 942.3,-942.3 v 666.7 664.3 h 1225 1225 v -1225 -1225 l -647.8,-4.7 -647.8,-7.1 935.2,-937.6 937.6,-935.2 942.3,942.3 942.3,942.3 h -666.7 -664.3 v 1225 1225 h 1225 1225 v -664.3 -666.7 l 942.3,942.3 942.3,942.3 -935.2,937.6 -937.6,935.2 -7.1,-647.8 -4.7,-647.8 h -1225 -1225 v 1225 1225 l 659.6,4.7 659.6,7.1 -935.2,937.6 -937.6,935.2 z"
             id="path4676"
             style="fill:#000000;fill-opacity:1;stroke:#000000;stroke-width:424.863;stroke-miterlimit:4;stroke-dasharray:none;stroke-opacity:1" />
        </g>
      </g>
    </g>
  </g>
</svg>
