<?xml version="1.0" encoding="UTF-8" standalone="no"?>
<svg
   width="32"
   height="32"
   viewBox="0 0 8.4666665 8.4666666"
   version="1.1"
   id="svg8"
   inkscape:version="1.1.1 (3bf5ae0d25, 2021-09-20)"
   sodipodi:docname="MODELER_ctrl_key.svg"
   xmlns:inkscape="http://www.inkscape.org/namespaces/inkscape"
   xmlns:sodipodi="http://sodipodi.sourceforge.net/DTD/sodipodi-0.dtd"
   xmlns="http://www.w3.org/2000/svg"
   xmlns:svg="http://www.w3.org/2000/svg"
   xmlns:rdf="http://www.w3.org/1999/02/22-rdf-syntax-ns#"
   xmlns:cc="http://creativecommons.org/ns#"
   xmlns:dc="http://purl.org/dc/elements/1.1/">
  <defs
     id="defs2" />
  <sodipodi:namedview
     id="base"
     pagecolor="#ffffff"
     bordercolor="#666666"
     borderopacity="1.0"
     inkscape:pageopacity="0.0"
     inkscape:pageshadow="2"
     inkscape:zoom="7.9999995"
     inkscape:cx="-2.5625002"
     inkscape:cy="47.937503"
     inkscape:document-units="mm"
     inkscape:current-layer="g4557"
     showgrid="false"
     units="px"
     inkscape:window-width="1920"
     inkscape:window-height="1057"
     inkscape:window-x="-8"
     inkscape:window-y="-8"
     inkscape:window-maximized="1"
     inkscape:snap-page="true"
     inkscape:snap-object-midpoints="true"
     inkscape:snap-center="true"
     inkscape:object-paths="true"
     inkscape:snap-intersection-paths="true"
     inkscape:object-nodes="true"
     inkscape:snap-smooth-nodes="true"
     inkscape:snap-midpoints="true"
     inkscape:snap-bbox="true"
     inkscape:snap-global="false"
     fit-margin-top="0"
     fit-margin-left="0"
     fit-margin-right="0"
     fit-margin-bottom="0"
     inkscape:document-rotation="0"
     objecttolerance="10.0"
     gridtolerance="10.0"
     guidetolerance="10.0"
     inkscape:pagecheckerboard="0"
     inkscape:lockguides="false" />
  <metadata
     id="metadata5">
    <rdf:RDF>
      <cc:Work
         rdf:about="">
        <dc:format>image/svg+xml</dc:format>
        <dc:type
           rdf:resource="http://purl.org/dc/dcmitype/StillImage" />
      </cc:Work>
    </rdf:RDF>
  </metadata>
  <g
     inkscape:label="Layer 1"
     inkscape:groupmode="layer"
     id="layer1"
     transform="translate(-0.00937524,-288.55225)">
    <g
       id="g4557"
       transform="translate(-0.51112752,0.58911265)">
      <rect
         style="fill:#adadad;fill-opacity:1;stroke:none;stroke-width:0.499999;stroke-linecap:round;stroke-linejoin:round;paint-order:stroke fill markers"
         id="rect1351"
         width="8.4666662"
         height="8.4666662"
         x="0.52050298"
         y="287.96313"
         ry="0.98221558" />
      <g
         aria-label="C"
         transform="matrix(0.85238087,0,0,0.85006148,0.7088771,43.374303)"
         id="text19048"
         style="font-weight:bold;font-size:5.63679px;font-family:Verdana;-inkscape-font-specification:'Verdana Bold';text-align:center;text-anchor:middle;stroke:#1a1a1a;stroke-width:0.117478;stroke-linecap:round;stroke-linejoin:round;paint-order:fill markers stroke">
        <path
           d="m 5.0661306,294.83974 q -0.4568883,0 -0.844968,-0.13487 -0.3853275,-0.13486 -0.6633137,-0.40184 -0.2779862,-0.26698 -0.4321172,-0.66607 -0.1513786,-0.39909 -0.1513786,-0.92203 0,-0.48716 0.145874,-0.8835 0.1458739,-0.39634 0.4238601,-0.67983 0.2669769,-0.27248 0.6605613,-0.42111 0.3963368,-0.14862 0.8642344,-0.14862 0.2587199,0 0.4651453,0.0303 0.2091777,0.0275 0.3853274,0.0743 0.1844067,0.0523 0.333033,0.11835 0.1513786,0.0633 0.2642245,0.11835 v 0.99359 H 6.3955102 q -0.077066,-0.066 -0.195416,-0.15688 -0.1155983,-0.0908 -0.2642246,-0.1789 -0.1513786,-0.0881 -0.3275283,-0.14863 -0.1761497,-0.0606 -0.3770704,-0.0606 -0.2229394,0 -0.4238602,0.0716 -0.2009207,0.0688 -0.3715657,0.2312 -0.162388,0.15688 -0.2642245,0.4156 -0.099084,0.25872 -0.099084,0.62753 0,0.38533 0.1073412,0.64405 0.1100935,0.25872 0.2752339,0.40735 0.1678926,0.15137 0.374318,0.21743 0.2064255,0.0633 0.4073462,0.0633 0.1926637,0 0.3798227,-0.0578 0.1899114,-0.0578 0.3495471,-0.15689 0.1348646,-0.0798 0.2504628,-0.17064 0.1155982,-0.0908 0.1899114,-0.15689 h 0.1100935 v 0.97984 q -0.154131,0.0688 -0.2945002,0.12936 -0.1403693,0.0605 -0.2945003,0.10459 -0.2009207,0.0578 -0.3770704,0.0881 -0.1761497,0.0303 -0.4844116,0.0303 z"
           id="path21969"
           style="stroke-width:0.117478" />
      </g>
    </g>
  </g>
</svg>
