<?xml version="1.0" encoding="UTF-8" standalone="no"?>
<svg
   width="32"
   height="32"
   viewBox="0 0 8.4666665 8.4666666"
   version="1.1"
   id="svg8"
   inkscape:version="1.1.1 (3bf5ae0d25, 2021-09-20)"
   sodipodi:docname="MODELER_tumble.svg"
   xmlns:inkscape="http://www.inkscape.org/namespaces/inkscape"
   xmlns:sodipodi="http://sodipodi.sourceforge.net/DTD/sodipodi-0.dtd"
   xmlns="http://www.w3.org/2000/svg"
   xmlns:svg="http://www.w3.org/2000/svg"
   xmlns:rdf="http://www.w3.org/1999/02/22-rdf-syntax-ns#"
   xmlns:cc="http://creativecommons.org/ns#"
   xmlns:dc="http://purl.org/dc/elements/1.1/">
  <defs
     id="defs2" />
  <sodipodi:namedview
     id="base"
     pagecolor="#ffffff"
     bordercolor="#666666"
     borderopacity="1.0"
     inkscape:pageopacity="0.0"
     inkscape:pageshadow="2"
     inkscape:zoom="22.577795"
     inkscape:cx="33.484226"
     inkscape:cy="-2.7903522"
     inkscape:document-units="mm"
     inkscape:current-layer="g4557"
     showgrid="false"
     units="px"
     inkscape:window-width="3840"
     inkscape:window-height="2068"
     inkscape:window-x="-12"
     inkscape:window-y="-12"
     inkscape:window-maximized="1"
     inkscape:snap-page="true"
     inkscape:snap-object-midpoints="true"
     inkscape:snap-center="true"
     inkscape:object-paths="true"
     inkscape:snap-intersection-paths="true"
     inkscape:object-nodes="true"
     inkscape:snap-smooth-nodes="true"
     inkscape:snap-midpoints="true"
     inkscape:snap-bbox="true"
     inkscape:snap-global="true"
     fit-margin-top="0"
     fit-margin-left="0"
     fit-margin-right="0"
     fit-margin-bottom="0"
     inkscape:document-rotation="0"
     objecttolerance="10.0"
     gridtolerance="10.0"
     guidetolerance="10.0"
     inkscape:pagecheckerboard="0" />
  <metadata
     id="metadata5">
    <rdf:RDF>
      <cc:Work
         rdf:about="">
        <dc:format>image/svg+xml</dc:format>
        <dc:type
           rdf:resource="http://purl.org/dc/dcmitype/StillImage" />
      </cc:Work>
    </rdf:RDF>
  </metadata>
  <g
     inkscape:label="Layer 1"
     inkscape:groupmode="layer"
     id="layer1"
     transform="translate(-0.00937524,-288.55225)">
    <g
       id="g4557"
       transform="matrix(1.2948522,0,0,1.2948522,-2.2992217,-85.566214)"
       style="stroke:#999999;stroke-opacity:1;stroke-width:0.38614446;stroke-miterlimit:4;stroke-dasharray:none;stroke-linejoin:round;stroke-linecap:round">
      <rect
         style="fill:#adadad;fill-opacity:1;stroke:none;stroke-width:0.386144;stroke-linecap:round;stroke-linejoin:round;paint-order:stroke fill markers"
         id="rect1351"
         width="6.5387125"
         height="6.5387125"
         x="1.782904"
         y="288.92755"
         ry="0.75855422" />
      <path
         style="fill:#000000;fill-opacity:1;stroke:#000000;stroke-width:0.154458;stroke-linecap:round;stroke-linejoin:round;stroke-miterlimit:4;stroke-dasharray:none;stroke-opacity:1"
         id="path4016"
         d="m 5.7910063,293.24843 c -0.223989,0.15698 -0.4857239,0.23525 -0.7540959,0.23153 -0.035672,-4.3e-4 -0.070515,-0.002 -0.1053578,-0.004 -0.014103,-9e-4 -0.028207,-0.003 -0.042724,-0.004 -0.027376,-0.003 -0.054753,-0.006 -0.081299,-0.0124 -0.016591,-0.003 -0.032767,-0.006 -0.048532,-0.0118 -0.026133,-0.005 -0.052264,-0.012 -0.077567,-0.0199 -0.012443,-0.003 -0.024474,-0.007 -0.036502,-0.0123 -0.029451,-0.009 -0.058487,-0.0199 -0.087106,-0.032 -0.00621,-0.002 -0.012858,-0.005 -0.01908,-0.007 -0.033184,-0.0145 -0.065953,-0.0297 -0.098307,-0.0473 -0.00123,-5.3e-4 -0.00291,-9.2e-4 -0.00415,-0.002 -0.1078464,-0.0594 -0.2065675,-0.13295 -0.2928449,-0.21912 -0.00123,-8.9e-4 -0.0025,-0.002 -0.00415,-0.003 -0.026961,-0.0271 -0.052265,-0.055 -0.076737,-0.0846 -0.00499,-0.005 -0.00996,-0.0133 -0.015347,-0.0194 -0.1758724,-0.2202 -0.2820596,-0.49854 -0.2820596,-0.80091 h 0.3388828 l -0.542136,-0.81249 -0.5421357,0.81181 h 0.338884 c 0,0.35579 0.1111649,0.68592 0.2998963,0.95844 0.00207,0.003 0.00374,0.007 0.00621,0.0118 0.019496,0.0278 0.04148,0.0534 0.062218,0.08 0.00789,0.009 0.015347,0.0202 0.023229,0.0297 0.030695,0.0377 0.063879,0.0726 0.097476,0.10733 0.00331,0.003 0.00621,0.005 0.00954,0.009 0.1132384,0.11303 0.2414102,0.20875 0.3807812,0.28496 0.00374,0.002 0.00746,0.003 0.011195,0.005 0.03982,0.0217 0.081299,0.041 0.1231939,0.0597 0.010377,0.003 0.020738,0.009 0.03111,0.0137 0.035673,0.015 0.07259,0.0278 0.109506,0.0404 0.01742,0.005 0.034843,0.012 0.052678,0.0174 0.032353,0.009 0.065538,0.0174 0.098722,0.0254 0.022398,0.004 0.043967,0.0109 0.066368,0.015 0.00954,0.002 0.01825,0.004 0.027376,0.005 0.031525,0.004 0.063048,0.009 0.094575,0.0124 0.011195,9.1e-4 0.022397,0.003 0.034013,0.003 0.05641,0.004 0.1128247,0.009 0.1688212,0.009 0.3442792,0 0.6802624,-0.1051 0.9685445,-0.30651 0.092083,-0.0645 0.1144835,-0.19095 0.049774,-0.28249 -0.064709,-0.092 -0.1912201,-0.11384 -0.2828896,-0.0497" />
      <path
         style="fill:#000000;fill-opacity:1;stroke:#000000;stroke-width:0.154458;stroke-linecap:round;stroke-linejoin:round;stroke-miterlimit:4;stroke-dasharray:none;stroke-opacity:1;paint-order:fill markers stroke"
         id="path4018"
         d="m 6.7462772,292.19553 c 0,-0.35497 -0.1107498,-0.68424 -0.2986517,-0.95637 -0.0025,-0.003 -0.00455,-0.009 -0.00746,-0.0137 -0.023642,-0.033 -0.048946,-0.0641 -0.074248,-0.0954 -0.00291,-0.003 -0.00581,-0.007 -0.0087,-0.0118 -0.1717246,-0.20835 -0.3878324,-0.36905 -0.6321464,-0.47424 -0.00664,-0.002 -0.013274,-0.005 -0.020326,-0.009 -0.039405,-0.0161 -0.079226,-0.0303 -0.1194606,-0.0435 -0.014517,-0.004 -0.028622,-0.009 -0.043555,-0.014 -0.034843,-0.0109 -0.070515,-0.019 -0.1066026,-0.0274 -0.019912,-0.003 -0.039405,-0.009 -0.059731,-0.0137 -0.00996,-9.1e-4 -0.01908,-0.004 -0.029036,-0.005 -0.026961,-0.003 -0.053509,-0.005 -0.08047,-0.0109 -0.018667,-0.002 -0.036502,-0.004 -0.055167,-0.006 -0.044798,-0.003 -0.089596,-0.005 -0.1343934,-0.005 -0.0083,0 -0.01576,-9e-4 -0.024059,-9e-4 -0.00123,0 -0.00291,4.2e-4 -0.00415,4.2e-4 -0.3438642,0 -0.6790179,0.10404 -0.9668852,0.30526 -0.092083,0.0641 -0.1144833,0.19052 -0.049774,0.28246 0.064294,0.0921 0.1912203,0.11433 0.2828898,0.0497 0.2223297,-0.15533 0.4819907,-0.23403 0.7478739,-0.23153 0.038162,0 0.075908,0.002 0.1132386,0.005 0.011616,9e-4 0.022815,0.002 0.034427,0.003 0.030695,0.003 0.060976,0.007 0.090839,0.0143 0.013274,0.002 0.026131,0.005 0.039405,0.009 0.029451,0.005 0.058488,0.0136 0.087106,0.0223 0.00911,0.002 0.017837,0.005 0.027376,0.009 0.032767,0.0109 0.065124,0.0224 0.096646,0.0351 0.00331,9.1e-4 0.00664,0.002 0.00954,0.003 0.1895608,0.0812 0.3558934,0.20668 0.4853091,0.36322 8.33e-4,5.3e-4 0.00166,0.002 0.00207,0.002 0.1825094,0.22198 0.2924298,0.5053 0.2924298,0.8143 H 6.0017214 l 0.5421361,0.81182 0.5408916,-0.81141 z" />
    </g>
  </g>
</svg>
