<?xml version="1.0" encoding="UTF-8" standalone="no"?>
<svg
   xmlns:dc="http://purl.org/dc/elements/1.1/"
   xmlns:cc="http://creativecommons.org/ns#"
   xmlns:rdf="http://www.w3.org/1999/02/22-rdf-syntax-ns#"
   xmlns:svg="http://www.w3.org/2000/svg"
   xmlns="http://www.w3.org/2000/svg"
   xmlns:sodipodi="http://sodipodi.sourceforge.net/DTD/sodipodi-0.dtd"
   xmlns:inkscape="http://www.inkscape.org/namespaces/inkscape"
   sodipodi:docname="MODELER_delete_groups.svg"
   inkscape:version="1.0 (4035a4fb49, 2020-05-01)"
   id="svg8"
   version="1.1"
   viewBox="0 0 8.4666665 8.4666666"
   height="32"
   width="32">
  <defs
     id="defs2" />
  <sodipodi:namedview
     inkscape:pagecheckerboard="0"
     guidetolerance="10.0"
     gridtolerance="10.0"
     objecttolerance="10.0"
     inkscape:document-rotation="0"
     fit-margin-bottom="0"
     fit-margin-right="0"
     fit-margin-left="0"
     fit-margin-top="0"
     inkscape:snap-global="false"
     inkscape:snap-bbox="true"
     inkscape:snap-midpoints="true"
     inkscape:snap-smooth-nodes="true"
     inkscape:object-nodes="true"
     inkscape:snap-intersection-paths="true"
     inkscape:object-paths="true"
     inkscape:snap-center="true"
     inkscape:snap-object-midpoints="true"
     inkscape:snap-page="true"
     inkscape:window-maximized="1"
     inkscape:window-y="-6"
     inkscape:window-x="-6"
     inkscape:window-height="1058"
     inkscape:window-width="1920"
     units="px"
     showgrid="false"
     inkscape:current-layer="g4557"
     inkscape:document-units="mm"
     inkscape:cy="12.717983"
     inkscape:cx="31.96619"
     inkscape:zoom="16"
     inkscape:pageshadow="2"
     inkscape:pageopacity="0.0"
     borderopacity="1.0"
     bordercolor="#666666"
     pagecolor="#ffffff"
     id="base" />
  <metadata
     id="metadata5">
    <rdf:RDF>
      <cc:Work
         rdf:about="">
        <dc:format>image/svg+xml</dc:format>
        <dc:type
           rdf:resource="http://purl.org/dc/dcmitype/StillImage" />
        <dc:title />
      </cc:Work>
    </rdf:RDF>
  </metadata>
  <g
     transform="translate(-0.00937524,-288.55225)"
     id="layer1"
     inkscape:groupmode="layer"
     inkscape:label="Layer 1">
    <g
       style="stroke:#999999;stroke-opacity:1;stroke-width:0.38614446;stroke-miterlimit:4;stroke-dasharray:none;stroke-linejoin:round;stroke-linecap:round"
       transform="matrix(1.2948522,0,0,1.2948522,-2.2992217,-85.566214)"
       id="g4557">
      <path
         d="m 2.4976032,289.20849 c -0.1133216,-0.002 -0.225861,0.0382 -0.3106627,0.12296 -0.1696035,0.16961 -0.1627646,0.44931 0.014963,0.62704 l 0.9612018,0.96122 -0.9612018,0.96122 c -0.1777277,0.17771 -0.1845665,0.45743 -0.014963,0.62703 0.1696035,0.16961 0.449298,0.16277 0.6270257,-0.0149 l 0.9612017,-0.96121 0.9612019,0.96121 c 0.1777277,0.17773 0.4574222,0.18457 0.6270255,0.0149 0.1696037,-0.1696 0.1627646,-0.44932 -0.014963,-0.62703 l -0.9612014,-0.96122 0.9612016,-0.96122 c 0.1777278,-0.17773 0.1845667,-0.45743 0.014963,-0.62704 -0.1696033,-0.1696 -0.4492978,-0.16275 -0.6270256,0.0149 l -0.9612019,0.96121 -0.9612016,-0.96121 c -0.088863,-0.0888 -0.2030416,-0.13523 -0.3163631,-0.13789 z"
         style="fill:#999999;fill-opacity:1;fill-rule:evenodd;stroke:#1a1a1a;stroke-width:0.386144;stroke-linecap:round;stroke-linejoin:round;stroke-miterlimit:4;stroke-dasharray:none;paint-order:fill markers stroke"
         id="rect1434" />
      <g
         style="font-style:normal;font-weight:normal;font-size:3.44745px;line-height:1.25;font-family:sans-serif;fill:#1a1a1a;fill-opacity:1;stroke:#1a1a1a;stroke-width:0.17961;stroke-linecap:round;stroke-linejoin:round;stroke-miterlimit:4;stroke-dasharray:none;stroke-opacity:1;paint-order:fill markers stroke"
         id="text849"
         transform="matrix(0.8582141,0,0,0.86171955,4.3694139,41.272334)"
         aria-label="G">
        <path
           id="path862"
           style="font-style:normal;font-variant:normal;font-weight:normal;font-stretch:normal;font-family:sans-serif;-inkscape-font-specification:sans-serif;fill:#1a1a1a;fill-opacity:1;stroke:#1a1a1a;stroke-width:0.17961;stroke-linecap:round;stroke-linejoin:round;stroke-miterlimit:4;stroke-dasharray:none;stroke-opacity:1;paint-order:fill markers stroke"
           d="m 4.363038,294.55769 q -0.2053657,0.0943 -0.4494478,0.16497 -0.2423988,0.069 -0.4696477,0.069 -0.2928986,0 -0.5369808,-0.0808 -0.2440821,-0.0808 -0.4157813,-0.2424 -0.1733825,-0.16329 -0.2676487,-0.40737 -0.094266,-0.24576 -0.094266,-0.57401 0,-0.60095 0.3501317,-0.94771 0.3518149,-0.34845 0.9645453,-0.34845 0.2137823,0 0.4359812,0.0522 0.2238822,0.0505 0.481431,0.17338 v 0.39558 h -0.0303 q -0.052183,-0.0404 -0.1514992,-0.10604 -0.099316,-0.0656 -0.1952658,-0.10942 -0.1161494,-0.0522 -0.264282,-0.0858 -0.1464493,-0.0353 -0.3332984,-0.0353 -0.4208313,0 -0.6665967,0.27102 -0.2440822,0.26933 -0.2440822,0.73056 0,0.48648 0.2558654,0.75749 0.2558655,0.26934 0.6968966,0.26934 0.1615993,0 0.3215152,-0.032 0.1615992,-0.032 0.2827986,-0.0825 v -0.61441 H 3.3614595 v -0.2929 H 4.363038 Z" />
      </g>
    </g>
  </g>
</svg>
